<svg width="33" height="34" viewBox="0 0 33 34" fill="none" xmlns="http://www.w3.org/2000/svg" data-locator-target="vscode">
<path d="M10.3008 29.6286L26.6072 26.1877C27.4018 26.0203 28.1089 25.5733 28.5958 24.9306C29.0827 24.2878 29.3159 23.4936 29.2515 22.6971L28.1738 9.5179C28.1218 8.8826 27.8829 8.27721 27.4864 7.77575C27.0899 7.27428 26.553 6.89846 25.9412 6.69423C25.3294 6.49 24.6693 6.46621 24.0416 6.62577C23.4139 6.78533 22.8457 7.12133 22.4066 7.59268L20.0767 10.0911L16.9159 6.49313C16.528 6.05111 16.0264 5.72029 15.4631 5.53508C14.8998 5.34987 14.2955 5.31702 13.713 5.43995C13.1304 5.56287 12.5909 5.83709 12.1505 6.23409C11.7101 6.63109 11.3848 7.13637 11.2086 7.69742L9.77019 12.2617L6.62939 10.9177C6.03694 10.6636 5.38102 10.5857 4.74193 10.6936C4.10284 10.8014 3.50831 11.0903 3.03111 11.5249C2.55392 11.9595 2.21477 12.5209 2.05518 13.1404C1.8956 13.7599 1.92249 14.4106 2.13258 15.0129L6.47156 27.5039C6.73454 28.2585 7.26872 28.8908 7.9738 29.2821C8.67888 29.6733 9.50635 29.7965 10.3008 29.6286Z" fill="#FFCD1F"/>
<path d="M10.3008 29.6286L26.6072 26.1877C27.4018 26.0203 28.1089 25.5733 28.5958 24.9306C29.0827 24.2878 29.3159 23.4936 29.2515 22.6971L28.1738 9.5179C28.1218 8.8826 27.8829 8.27721 27.4864 7.77575C27.0899 7.27428 26.553 6.89846 25.9412 6.69423C25.3294 6.49 24.6693 6.46621 24.0416 6.62577C23.4139 6.78533 22.8457 7.12133 22.4066 7.59268L20.0767 10.0911L16.9159 6.49313C16.528 6.05111 16.0264 5.72029 15.4631 5.53508C14.8998 5.34987 14.2955 5.31702 13.713 5.43995C13.1304 5.56287 12.5909 5.83709 12.1505 6.23409C11.7101 6.63109 11.3848 7.13637 11.2086 7.69742L9.77019 12.2617L6.62939 10.9177C6.03694 10.6636 5.38102 10.5857 4.74193 10.6936C4.10284 10.8014 3.50831 11.0903 3.03111 11.5249C2.55392 11.9595 2.21477 12.5209 2.05518 13.1404C1.8956 13.7599 1.92249 14.4106 2.13258 15.0129L6.47156 27.5039C6.73454 28.2585 7.26872 28.8908 7.9738 29.2821C8.67888 29.6733 9.50635 29.7965 10.3008 29.6286ZM11.8383 16.7355L14.3915 8.65554L19.9915 15.0151L24.8524 9.79981L25.9301 22.979L9.62374 26.4198L5.28476 13.9288L11.8383 16.7355Z" fill="#FFEDAB"/>
</svg>