<svg width="175" height="60" viewBox="0 0 175 60" fill="none" xmlns="http://www.w3.org/2000/svg">
<path d="M37.125 9.125C37 9.54167 36.875 9.79167 36.75 9.875C36.2917 9.75 35.9792 9.58333 35.8125 9.375C35.6875 9.16667 35.5625 8.95833 35.4375 8.75C35.0208 8.625 34.7708 8.60417 34.6875 8.6875C34.6458 8.77083 34.5417 8.8125 34.375 8.8125C34.2083 8.72917 34.0833 8.60417 34 8.4375C33.9167 8.27083 33.7917 8.14583 33.625 8.0625C33.1667 7.9375 32.8333 7.8125 32.625 7.6875C32.4167 7.5625 32.2083 7.39583 32 7.1875C31.7917 7.27083 31.5208 7.33333 31.1875 7.375C30.8958 7.41667 30.7083 7.3125 30.625 7.0625C30.2917 6.97917 29.9583 6.95833 29.625 7C29.3333 7.04167 29.0417 7.10417 28.75 7.1875L27.625 6.875C27.125 6.58333 26.7708 6.52083 26.5625 6.6875C26.3958 6.85417 26.2292 6.97917 26.0625 7.0625C25.8958 7.10417 25.75 7.08333 25.625 7C25.5417 6.91667 25.4375 6.85417 25.3125 6.8125C25.1042 6.85417 24.8958 6.875 24.6875 6.875C24.4792 6.875 24.3125 6.91667 24.1875 7C23.6875 6.91667 23.3333 6.9375 23.125 7.0625C22.9583 7.1875 22.8333 7.35417 22.75 7.5625C22.9167 7.9375 22.9375 8.14583 22.8125 8.1875C22.6875 8.1875 22.625 8.27083 22.625 8.4375C23.0417 8.89583 23.1875 9.16667 23.0625 9.25C22.9375 9.33333 22.8333 9.47917 22.75 9.6875C22.8333 9.89583 22.8958 10.0625 22.9375 10.1875C23.0208 10.2708 23.1042 10.3958 23.1875 10.5625C23.1458 11.1458 23.1667 11.5 23.25 11.625C23.375 11.75 23.4375 11.9167 23.4375 12.125C23.4792 12.2083 23.4792 12.3125 23.4375 12.4375C23.4375 12.5625 23.4375 12.7083 23.4375 12.875C23.4375 13.0417 23.4375 13.1875 23.4375 13.3125C23.4792 13.4375 23.5 13.5625 23.5 13.6875C23.5 14.0208 23.3958 14.3333 23.1875 14.625L22.625 15.1875C22.75 15.3958 22.875 15.6042 23 15.8125C23.125 16.0208 23.2083 16.2708 23.25 16.5625C23.0833 17.1458 23.0417 17.5417 23.125 17.75C23.2083 17.9583 23.2083 18.1667 23.125 18.375C22.9583 18.9583 22.9792 19.3958 23.1875 19.6875C23.4375 19.9792 23.4583 20.375 23.25 20.875C23.4167 21.4583 23.4375 21.8542 23.3125 22.0625C23.2292 22.2292 23.1458 22.4167 23.0625 22.625C23.5208 23.2083 23.7292 23.6458 23.6875 23.9375C23.6458 24.2292 23.625 24.5 23.625 24.75C23.5833 24.875 23.5833 25 23.625 25.125C23.6667 25.25 23.6875 25.375 23.6875 25.5C23.6458 25.6667 23.6042 25.8333 23.5625 26C23.5208 26.125 23.4792 26.2708 23.4375 26.4375C23.2708 26.6042 23.1042 26.75 22.9375 26.875C22.7708 27 22.625 27.1458 22.5 27.3125C22.5 27.5208 22.5208 27.7083 22.5625 27.875C22.6042 28.0417 22.6458 28.2292 22.6875 28.4375C22.7292 28.6042 22.8333 28.75 23 28.875C23.1667 28.9583 23.3125 29.0625 23.4375 29.1875C23.6458 29.3958 23.7083 29.5833 23.625 29.75C23.5417 29.875 23.3333 29.9583 23 30C23.0417 30.4583 23.1667 30.9583 23.375 31.5C23.625 32 23.5625 32.4375 23.1875 32.8125C23.1875 33.1458 23.25 33.4167 23.375 33.625C23.5 33.7917 23.6042 34.0208 23.6875 34.3125L23.1875 35.5625C23.2292 35.8542 23.3125 36.1458 23.4375 36.4375C23.5625 36.6875 23.6042 37.0417 23.5625 37.5C23.3542 37.8333 23.2708 38.0833 23.3125 38.25C23.3542 38.4167 23.3333 38.5625 23.25 38.6875C23.25 39.3542 23.3542 39.7917 23.5625 40C23.8125 40.2083 23.9583 40.5208 24 40.9375C23.9167 41.1042 23.7708 41.2083 23.5625 41.25C23.3542 41.25 23.1458 41.2708 22.9375 41.3125C22.9792 41.5208 23.0208 41.7292 23.0625 41.9375C23.1458 42.1458 23.1667 42.375 23.125 42.625C23.2083 42.7917 23.3125 42.9375 23.4375 43.0625C23.5625 43.1875 23.6667 43.3333 23.75 43.5C23.6667 43.7083 23.5417 43.8958 23.375 44.0625C23.25 44.1875 23.1458 44.375 23.0625 44.625C23.0625 44.8333 23.125 44.9792 23.25 45.0625C23.375 45.1042 23.4583 45.2083 23.5 45.375C23.4167 45.7083 23.3542 45.9792 23.3125 46.1875C23.3125 46.3958 23.2708 46.6042 23.1875 46.8125C23.1042 46.8958 22.9792 46.9167 22.8125 46.875C22.6458 46.8333 22.5 46.8333 22.375 46.875C22.1667 47.0417 21.9583 47.2292 21.75 47.4375C21.5833 47.6458 21.3125 47.6875 20.9375 47.5625C20.6875 47.6458 20.5625 47.7917 20.5625 48C20.6042 48.2083 20.625 48.3958 20.625 48.5625C20.4167 48.6875 20.2083 48.6667 20 48.5C19.8333 48.375 19.625 48.2917 19.375 48.25C19 48.4167 18.7917 48.75 18.75 49.25C18.4167 49.5833 18.1875 49.8125 18.0625 49.9375C17.9375 50.1042 17.8333 50.2917 17.75 50.5C17.3333 50.75 17.0417 51.0208 16.875 51.3125C16.75 51.6458 16.5417 51.8958 16.25 52.0625C15.7917 51.9792 15.5417 52.0625 15.5 52.3125C15.5 52.4375 15.5208 52.5417 15.5625 52.625C15.6042 52.75 15.625 52.875 15.625 53C15.5 53.1667 15.375 53.3125 15.25 53.4375C15.1667 53.5625 15.0417 53.6667 14.875 53.75C14.7917 53.9167 14.7292 54.0625 14.6875 54.1875C14.6875 54.3542 14.6667 54.5 14.625 54.625C14.4583 54.7083 14.3125 54.8333 14.1875 55C14.1042 55.1667 14.0208 55.3542 13.9375 55.5625L13.25 55.75C13.125 56.0833 13 56.2917 12.875 56.375C12.75 56.4583 12.5625 56.5 12.3125 56.5C12.2292 56.125 12.25 55.8542 12.375 55.6875C12.5417 55.5625 12.6667 55.375 12.75 55.125C12.8333 54.9583 12.9167 54.7708 13 54.5625C13.0833 54.3958 13.1875 54.2292 13.3125 54.0625C13.6042 53.3542 13.8333 52.7292 14 52.1875C14.2083 51.6875 14.2917 51.1458 14.25 50.5625C14.4167 50.2292 14.5833 49.875 14.75 49.5C14.9167 49.1667 14.9792 48.7708 14.9375 48.3125C15.1458 48.1042 15.3333 47.875 15.5 47.625C15.6667 47.4167 15.8542 47.2083 16.0625 47C16.1042 46.4167 16.0625 46.0833 15.9375 46C15.8542 45.9583 15.8333 45.8333 15.875 45.625C15.9583 45.3333 16.0625 45.125 16.1875 45C16.3542 44.875 16.5 44.6667 16.625 44.375C16.5417 44.1667 16.4583 43.9792 16.375 43.8125C16.2917 43.6458 16.2083 43.4583 16.125 43.25C16.2083 43 16.2292 42.7708 16.1875 42.5625C16.1875 42.3125 16.1667 42.0417 16.125 41.75C16.125 41.5417 16.1042 41.3542 16.0625 41.1875C16.0208 41.0208 15.9583 40.8333 15.875 40.625C16.0833 40.2917 16.2292 39.8958 16.3125 39.4375C16.3958 38.9375 16.4167 38.4583 16.375 38C16.2917 37.7917 16.1667 37.625 16 37.5C15.875 37.375 15.7708 37.2083 15.6875 37C15.7292 36.7917 15.7708 36.6458 15.8125 36.5625C15.8542 36.4375 15.875 36.2917 15.875 36.125C15.7917 35.9583 15.6875 35.8542 15.5625 35.8125C15.4375 35.7708 15.3333 35.6458 15.25 35.4375C15.3333 35.2292 15.4375 35.0833 15.5625 35C15.7292 34.875 15.8333 34.7083 15.875 34.5C15.7917 34.2917 15.6875 34.0833 15.5625 33.875C15.4375 33.6667 15.3333 33.4375 15.25 33.1875C15.5 32.5625 15.6667 32.0833 15.75 31.75C16 31.5 16.1667 31.1042 16.25 30.5625C16.2083 30.2708 16.1042 30.0833 15.9375 30C15.8125 29.875 15.7083 29.7083 15.625 29.5C15.625 29.2917 15.6667 29.1042 15.75 28.9375C15.8333 28.7708 15.8542 28.5417 15.8125 28.25C15.9792 28.0417 16.0833 27.8333 16.125 27.625C16.2083 27.375 16.2917 27.1458 16.375 26.9375C16.2917 26.6875 16.1875 26.5 16.0625 26.375C15.9375 26.25 15.8542 26.0417 15.8125 25.75C16.0625 25.2917 16.2083 25 16.25 24.875C16.2917 24.75 16.3333 24.625 16.375 24.5C16.2917 24.3333 16.2292 24.1875 16.1875 24.0625C16.1875 23.9375 16.1458 23.8333 16.0625 23.75C15.9375 22.75 15.75 21.8125 15.5 20.9375C15.5833 20.4375 15.6458 20.1458 15.6875 20.0625C15.7292 19.9375 15.7083 19.8125 15.625 19.6875C15.7083 19.4792 15.7292 19.2708 15.6875 19.0625C15.6875 18.8125 15.7083 18.5833 15.75 18.375C15.875 18.125 15.9583 17.9167 16 17.75C16.0417 17.5417 16.1042 17.3333 16.1875 17.125C16.1875 16.9167 16.125 16.7708 16 16.6875C15.9167 16.6042 15.8542 16.4792 15.8125 16.3125C15.8958 15.9792 16.0208 15.6875 16.1875 15.4375C16.3542 15.1875 16.4167 14.8542 16.375 14.4375C16.2917 14.3542 16.1875 14.2917 16.0625 14.25C15.9792 14.2083 15.8958 14.125 15.8125 14C15.8958 13.5417 15.9167 13.0417 15.875 12.5C15.8333 11.9583 15.8542 11.4792 15.9375 11.0625C15.9792 10.5625 15.9792 10.1875 15.9375 9.9375C15.9375 9.6875 15.8958 9.45833 15.8125 9.25C15.7708 8.875 15.6875 8.66667 15.5625 8.625C15.4375 8.58333 15.3333 8.45833 15.25 8.25C15.3333 8.04167 15.4375 7.89583 15.5625 7.8125C15.7292 7.6875 15.8333 7.5 15.875 7.25C15.5 7.20833 15.25 7.02083 15.125 6.6875C14.5417 6.89583 14.1042 7.04167 13.8125 7.125C13.5625 7.20833 13.3125 7.29167 13.0625 7.375C12.7708 7.29167 12.3125 7.27083 11.6875 7.3125C11.1042 7.35417 10.6458 7.375 10.3125 7.375C10.2292 7.29167 10.125 7.22917 10 7.1875C9.91667 7.10417 9.8125 7.02083 9.6875 6.9375C9.22917 7.10417 8.97917 7.1875 8.9375 7.1875C8.6875 7.10417 8.39583 7.04167 8.0625 7C7.77083 6.95833 7.4375 6.97917 7.0625 7.0625C6.97917 7.3125 6.79167 7.41667 6.5 7.375C6.20833 7.33333 5.95833 7.27083 5.75 7.1875C5.45833 7.47917 5.02083 7.77083 4.4375 8.0625C4.02083 8.14583 3.79167 8.27083 3.75 8.4375C3.66667 8.60417 3.54167 8.72917 3.375 8.8125C3.20833 8.8125 3.10417 8.77083 3.0625 8.6875C2.97917 8.60417 2.875 8.54167 2.75 8.5C2.25 8.875 1.9375 9.16667 1.8125 9.375C1.6875 9.58333 1.5 9.75 1.25 9.875C0.958333 9.79167 0.729167 9.58333 0.5625 9.25C0.770833 8.95833 0.979167 8.6875 1.1875 8.4375C1.39583 8.14583 1.5625 7.875 1.6875 7.625C1.6875 7.41667 1.70833 7.27083 1.75 7.1875C1.79167 7.10417 1.83333 7 1.875 6.875C1.66667 6.45833 1.60417 6.25 1.6875 6.25C1.77083 6.20833 1.85417 6.14583 1.9375 6.0625C2.10417 5.85417 2.20833 5.58333 2.25 5.25C2.29167 4.91667 2.41667 4.64583 2.625 4.4375C2.95833 3.97917 3.08333 3.72917 3 3.6875C2.91667 3.64583 2.89583 3.54167 2.9375 3.375C2.97917 3.125 3.14583 2.97917 3.4375 2.9375C3.72917 2.89583 3.9375 2.77083 4.0625 2.5625C4.02083 2.35417 4.02083 2.16667 4.0625 2C4.0625 1.83333 4.02083 1.64583 3.9375 1.4375C4.27083 1.02083 4.47917 0.854167 4.5625 0.9375C4.60417 1.02083 4.66667 1.04167 4.75 1C4.875 0.375 5.14583 0.0625 5.5625 0.0625C5.72917 0.104167 5.97917 0.208333 6.3125 0.375C6.8125 0.625 7.0625 0.895833 7.0625 1.1875C7.27083 1.1875 7.41667 1.14583 7.5 1.0625C7.625 0.979167 7.79167 0.9375 8 0.9375C8.20833 0.854167 8.375 0.75 8.5 0.625C8.66667 0.5 8.91667 0.4375 9.25 0.4375C9.41667 0.520833 9.5 0.791667 9.5 1.25C9.70833 1.16667 9.89583 1.0625 10.0625 0.9375C10.2292 0.8125 10.4167 0.708333 10.625 0.625C10.7083 0.625 10.9167 0.645833 11.25 0.6875C11.5833 0.729167 11.7917 0.770833 11.875 0.8125C12.0833 0.854167 12.2917 0.8125 12.5 0.6875C12.7083 0.5625 12.8958 0.5 13.0625 0.5C13.2292 0.5 13.375 0.541667 13.5 0.625C13.6667 0.666667 13.8125 0.729167 13.9375 0.8125C14.1042 0.770833 14.2292 0.729167 14.3125 0.6875C14.4375 0.604167 14.5625 0.541667 14.6875 0.5C15.3542 0.666667 15.7917 0.708333 16 0.625C16.25 0.5 16.5417 0.4375 16.875 0.4375C17.0833 0.479167 17.2708 0.520833 17.4375 0.5625C17.6458 0.604167 17.8542 0.645833 18.0625 0.6875C18.1458 0.8125 18.2292 0.9375 18.3125 1.0625C18.4375 1.1875 18.5833 1.27083 18.75 1.3125C19.0417 1.3125 19.2292 1.22917 19.3125 1.0625C19.4375 0.895833 19.5625 0.729167 19.6875 0.5625C20.0208 0.645833 20.3542 0.604167 20.6875 0.4375C21.0208 0.270833 21.3125 0.291667 21.5625 0.5C21.7292 0.458333 21.8542 0.395833 21.9375 0.3125C22.0208 0.1875 22.125 0.0833333 22.25 0C22.4167 0 22.5417 0.0208333 22.625 0.0625C22.75 0.104167 22.8542 0.145833 22.9375 0.1875C23.3125 0.145833 23.6667 0.145833 24 0.1875C24.375 0.229167 24.6667 0.333333 24.875 0.5C25.25 0.416667 25.5208 0.4375 25.6875 0.5625C26.0208 0.520833 26.2917 0.4375 26.5 0.3125C26.75 0.1875 27.0208 0.145833 27.3125 0.1875C27.7292 0.395833 28.0833 0.479167 28.375 0.4375C28.7083 0.395833 28.9792 0.479167 29.1875 0.6875C29.6458 0.479167 30.0833 0.479167 30.5 0.6875C30.8333 0.604167 31.125 0.5 31.375 0.375C31.625 0.25 31.8958 0.145833 32.1875 0.0625C32.6042 0.0625 32.7292 0.270833 32.5625 0.6875C32.9375 0.9375 33.1458 1.02083 33.1875 0.9375C33.2292 0.854167 33.2917 0.854167 33.375 0.9375C33.5417 1.47917 33.625 1.83333 33.625 2C33.6667 2.16667 33.6667 2.35417 33.625 2.5625C33.75 2.77083 33.9583 2.89583 34.25 2.9375C34.5833 2.97917 34.7708 3.125 34.8125 3.375C34.8542 3.54167 34.8333 3.64583 34.75 3.6875C34.6667 3.72917 34.625 3.85417 34.625 4.0625C35.1667 4.52083 35.4375 4.91667 35.4375 5.25C35.4792 5.58333 35.5833 5.85417 35.75 6.0625C36 6.47917 36.0833 6.70833 36 6.75C35.9167 6.75 35.8542 6.79167 35.8125 6.875C35.8542 7 35.8958 7.10417 35.9375 7.1875C35.9792 7.27083 36 7.41667 36 7.625C36.125 7.875 36.2917 8.14583 36.5 8.4375C36.75 8.6875 36.9583 8.91667 37.125 9.125ZM58.6875 5C58.7708 5.125 58.7917 5.25 58.75 5.375C58.75 5.5 58.7917 5.60417 58.875 5.6875C58.75 6.02083 58.5833 6.33333 58.375 6.625C58.4167 7.125 58.2708 7.5 57.9375 7.75C57.6458 8 57.4167 8.29167 57.25 8.625C57.1667 9.125 56.9583 9.5 56.625 9.75C56.5833 9.95833 56.5417 10.1667 56.5 10.375C56.5 10.5417 56.5417 10.7083 56.625 10.875C56.5417 11.0417 56.4375 11.1667 56.3125 11.25C56.2292 11.3333 56.1458 11.4583 56.0625 11.625C56.1042 12.0833 56.0625 12.3542 55.9375 12.4375C55.8542 12.5208 55.7708 12.6458 55.6875 12.8125C55.3958 13.3542 55.1667 13.75 55 14C54.875 14.2083 54.7708 14.4583 54.6875 14.75C54.4375 15.3333 54.2083 15.7292 54 15.9375C53.7917 15.9792 53.6458 15.9583 53.5625 15.875C53.5208 15.7917 53.4375 15.7292 53.3125 15.6875C53.1875 16.1458 53.0417 16.3333 52.875 16.25C52.75 16.125 52.6667 15.9792 52.625 15.8125C52.125 15.8542 51.8125 15.8125 51.6875 15.6875C51.6042 15.5625 51.4583 15.4792 51.25 15.4375C51 15.3958 50.7917 15.4167 50.625 15.5C50.5 15.5833 50.3125 15.625 50.0625 15.625C49.8958 15.5833 49.75 15.5208 49.625 15.4375C49.5417 15.3125 49.4167 15.25 49.25 15.25C49.0417 15.2083 48.875 15.25 48.75 15.375C48.625 15.5 48.4792 15.6042 48.3125 15.6875C48.0208 15.6042 47.75 15.6042 47.5 15.6875C47.2917 15.7708 47.0208 15.8333 46.6875 15.875C46.2708 15.75 45.9583 15.6667 45.75 15.625C45.5833 15.5833 45.4792 15.4583 45.4375 15.25C44.9375 15.5 44.6458 15.5833 44.5625 15.5C44.5208 15.375 44.4375 15.25 44.3125 15.125C44.1042 15.1667 43.9167 15.2292 43.75 15.3125C43.625 15.3542 43.5208 15.4167 43.4375 15.5C42.9792 15.2083 42.6667 15.3333 42.5 15.875C42.75 16.5833 42.7917 17.0208 42.625 17.1875C42.4583 17.3542 42.3333 17.5833 42.25 17.875C42.375 18.125 42.4792 18.3958 42.5625 18.6875C42.6458 18.9375 42.625 19.2292 42.5 19.5625C42.5833 19.7708 42.6458 20.0208 42.6875 20.3125C42.7292 20.6042 42.6875 20.875 42.5625 21.125C42.7708 21.7083 42.8125 22.2917 42.6875 22.875C42.6042 23.4583 42.6042 24.0208 42.6875 24.5625C42.8542 24.6042 43 24.6042 43.125 24.5625C43.2917 24.5208 43.4792 24.5 43.6875 24.5C44.1875 24.375 44.4792 24.3542 44.5625 24.4375C44.6875 24.4792 44.8125 24.5417 44.9375 24.625C45.0208 24.5833 45.125 24.5833 45.25 24.625C45.375 24.625 45.5 24.6042 45.625 24.5625C45.75 24.5208 45.8542 24.4792 45.9375 24.4375C46.0625 24.3542 46.1875 24.3333 46.3125 24.375C46.7292 24.4583 47 24.5 47.125 24.5C47.2917 24.5 47.4375 24.5 47.5625 24.5C47.9375 24.2083 48.3542 24.0833 48.8125 24.125C49.1042 23.9167 49.3333 23.6458 49.5 23.3125C49.6667 22.9792 49.9375 22.75 50.3125 22.625C50.7708 22.5417 51.0417 22.3958 51.125 22.1875C51.2083 21.9375 51.375 21.7708 51.625 21.6875C51.7917 21.3125 51.9167 21.0833 52 21C52.3333 20.75 52.5833 20.5833 52.75 20.5C52.9167 20.4167 53.125 20.375 53.375 20.375C53.375 20.875 53.4375 21.1458 53.5625 21.1875C53.6875 21.2292 53.7083 21.2917 53.625 21.375C53.5833 21.5 53.5 21.6042 53.375 21.6875C53.25 21.7292 53.1458 21.7917 53.0625 21.875C53.1042 22.0417 53.1042 22.1667 53.0625 22.25C53.0208 22.3333 53 22.4375 53 22.5625C52.8333 22.7292 52.6042 22.875 52.3125 23C52.1042 23.25 51.9375 23.5833 51.8125 24C51.7708 24.6667 51.6667 25.1667 51.5 25.5C51.375 25.8333 51.2917 26.25 51.25 26.75C50.75 27.0417 50.4375 27.3333 50.3125 27.625C50.2292 27.875 50.1042 28.1042 49.9375 28.3125C49.8958 28.8125 49.8125 29.1458 49.6875 29.3125C49.6042 29.4792 49.5 29.6458 49.375 29.8125C48.875 30.1042 48.5625 30.25 48.4375 30.25C48.3125 30.2083 48.1875 30.2292 48.0625 30.3125C47.8542 30.2708 47.6458 30.25 47.4375 30.25C47.2708 30.25 47.0833 30.2083 46.875 30.125C46.7083 30.0417 46.5208 30.0625 46.3125 30.1875C46.1458 30.3125 45.9792 30.375 45.8125 30.375C45.5625 30.375 45.375 30.3125 45.25 30.1875C45.1667 30.0625 45.0625 29.9583 44.9375 29.875C44.7292 29.9167 44.5 29.9583 44.25 30C44.0417 30.0417 43.875 30.125 43.75 30.25C43.5833 30.2917 43.4375 30.2917 43.3125 30.25C43.2292 30.2083 43.1042 30.1875 42.9375 30.1875C42.8125 30.3125 42.7292 30.4792 42.6875 30.6875C42.6458 30.8958 42.5208 31.0208 42.3125 31.0625C42.3542 31.2708 42.4167 31.4375 42.5 31.5625C42.625 31.6458 42.75 31.75 42.875 31.875C42.7917 32.375 42.7083 32.8125 42.625 33.1875C42.5 33.7708 42.5 34.125 42.625 34.25C42.7917 34.3333 42.875 34.5208 42.875 34.8125C42.8333 35.0208 42.75 35.2083 42.625 35.375C42.5417 35.5417 42.4583 35.7292 42.375 35.9375C42.4167 36.1458 42.4583 36.3125 42.5 36.4375C42.5833 36.5625 42.6042 36.75 42.5625 37C42.7708 37.7917 42.75 38.25 42.5 38.375C42.2917 38.5 42.1667 38.7292 42.125 39.0625C42.2083 39.2708 42.2708 39.4375 42.3125 39.5625C42.3958 39.6875 42.4375 39.8542 42.4375 40.0625C42.5208 40.1458 42.5625 40.25 42.5625 40.375C42.6042 40.5 42.6667 40.6042 42.75 40.6875C43.25 40.5625 43.5208 40.5417 43.5625 40.625C43.6042 40.6667 43.6667 40.7292 43.75 40.8125C43.9167 40.7292 44.0625 40.6875 44.1875 40.6875C44.3125 40.6458 44.4375 40.5833 44.5625 40.5C44.8542 40.4583 45.0625 40.4792 45.1875 40.5625C45.3125 40.6458 45.4792 40.7083 45.6875 40.75C46.0208 40.6667 46.2917 40.5625 46.5 40.4375C46.7083 40.2708 47.0417 40.2083 47.5 40.25C47.5833 40.3333 47.625 40.4583 47.625 40.625C47.6667 40.75 47.6875 40.8958 47.6875 41.0625C47.8542 41.0625 48 41 48.125 40.875C48.25 40.7083 48.4583 40.6667 48.75 40.75C49.2083 40.5833 49.4375 40.6042 49.4375 40.8125C49.7708 40.7292 50 40.5833 50.125 40.375C50.25 40.1667 50.4583 40.0208 50.75 39.9375C51.0833 40.0208 51.2917 40.0208 51.375 39.9375C51.4583 39.8125 51.5625 39.7083 51.6875 39.625C52.3542 39.5417 52.7708 39.3125 52.9375 38.9375C53.1042 38.5208 53.3125 38.1458 53.5625 37.8125C53.6875 37.7292 53.8333 37.6875 54 37.6875C54.2083 37.6458 54.4167 37.6042 54.625 37.5625C54.75 37.3542 54.8542 37.1042 54.9375 36.8125C55.0208 36.5208 55.1458 36.2708 55.3125 36.0625C55.4375 35.9375 55.5625 35.8333 55.6875 35.75C55.8125 35.6667 55.9167 35.5208 56 35.3125C56.3333 34.9792 56.5833 34.6875 56.75 34.4375C56.9583 34.1458 57.2917 34.0417 57.75 34.125C58.125 34.4583 58.2292 34.6667 58.0625 34.75C57.8958 34.8333 57.7917 35.0208 57.75 35.3125C57.7917 35.4375 57.8333 35.5625 57.875 35.6875C57.9583 35.8125 57.9792 35.9583 57.9375 36.125C57.6042 36.6667 57.4167 37.0208 57.375 37.1875C57.3333 37.3542 57.2708 37.5208 57.1875 37.6875C57.1458 37.8958 57.1667 38.0625 57.25 38.1875C57.3333 38.3125 57.3958 38.4792 57.4375 38.6875C57.1042 39.0208 56.9167 39.2292 56.875 39.3125C56.875 39.3958 56.875 39.4792 56.875 39.5625C56.875 39.7292 56.8958 39.8542 56.9375 39.9375C57.0208 40.0208 57.0833 40.125 57.125 40.25C57.125 40.4583 57.1042 40.625 57.0625 40.75C57.0208 40.8333 56.9583 40.9375 56.875 41.0625C56.5833 41.2292 56.3958 41.3958 56.3125 41.5625C56.2708 41.6875 56.2708 41.8125 56.3125 41.9375C56.0625 42.3542 55.9167 42.5833 55.875 42.625C55.875 42.6667 55.8333 42.6875 55.75 42.6875C55.6667 42.9792 55.6042 43.2917 55.5625 43.625C55.5625 43.9167 55.5 44.1875 55.375 44.4375C55.2917 44.5208 55.1458 44.5417 54.9375 44.5C54.7708 44.4583 54.6667 44.5 54.625 44.625C54.6667 44.8333 54.7083 45 54.75 45.125C54.7917 45.2083 54.8542 45.3125 54.9375 45.4375C54.9375 45.6458 54.9583 45.8333 55 46C55.0833 46.125 55.125 46.2917 55.125 46.5C55 46.7083 54.7917 46.7708 54.5 46.6875C54.2083 46.6458 53.9792 46.5833 53.8125 46.5C53.6875 46.5417 53.5833 46.6042 53.5 46.6875C53.4167 46.7708 53.2917 46.8125 53.125 46.8125C52.7083 46.6875 52.375 46.6042 52.125 46.5625C51.5833 46.8542 51.1042 46.9792 50.6875 46.9375C50.3125 46.8958 49.9375 46.875 49.5625 46.875C48.9375 46.875 48.5208 46.7917 48.3125 46.625C48.1042 46.5 47.875 46.4375 47.625 46.4375C47.4583 46.4792 47.3333 46.5417 47.25 46.625C47.1667 46.7083 47.0208 46.7917 46.8125 46.875C46.6458 46.8333 46.4792 46.8125 46.3125 46.8125C46.1458 46.8125 45.9583 46.8125 45.75 46.8125C45.2917 46.6458 44.9167 46.6458 44.625 46.8125C44.375 46.9792 44.1458 46.9167 43.9375 46.625C43.8542 46.7083 43.7292 46.8125 43.5625 46.9375C43.4375 47.0625 43.2917 47.0208 43.125 46.8125C43.125 46.6875 43.1458 46.5625 43.1875 46.4375C43.2292 46.3125 43.2083 46.2083 43.125 46.125C42.5 46.3333 42.0833 46.4792 41.875 46.5625C41.7083 46.6875 41.4583 46.7708 41.125 46.8125C40.625 46.9375 40.2708 46.9583 40.0625 46.875C39.8958 46.8333 39.7917 46.7083 39.75 46.5C39.125 46.625 38.75 46.75 38.625 46.875C38.5417 47.0417 38.375 47.125 38.125 47.125C37.9167 46.9583 37.6458 46.8333 37.3125 46.75C36.9792 46.7083 36.6458 46.7292 36.3125 46.8125C35.9792 46.7292 35.6875 46.6875 35.4375 46.6875C35.2292 46.6875 35.0625 46.7292 34.9375 46.8125C34.7292 46.9792 34.5625 47.1875 34.4375 47.4375C34.3125 47.6875 34.0833 47.8333 33.75 47.875C33.4583 47.8333 33.25 47.7292 33.125 47.5625C33 47.4375 32.8333 47.3333 32.625 47.25C32.4167 47.25 32.2708 47.3125 32.1875 47.4375C32.1042 47.5625 31.9583 47.625 31.75 47.625C31.0417 47.1667 30.5208 46.875 30.1875 46.75C29.8125 46.625 29.3958 46.5417 28.9375 46.5C28.9792 46.1667 29.125 46 29.375 46C29.625 46.0417 29.7917 45.9583 29.875 45.75C30.1667 45.6667 30.3542 45.625 30.4375 45.625C30.5208 45.5833 30.6042 45.5208 30.6875 45.4375C30.8958 45.4792 31.1042 45.4792 31.3125 45.4375C31.4792 45.3958 31.6458 45.4167 31.8125 45.5C32.3958 45.4583 32.8125 45.3125 33.0625 45.0625C33.3125 44.7708 33.5833 44.4583 33.875 44.125C34.1667 44.0417 34.3333 43.9792 34.375 43.9375C34.4167 43.8542 34.4792 43.7917 34.5625 43.75C34.8542 43.25 35.0417 42.8958 35.125 42.6875C35.25 42.4792 35.4167 42.2917 35.625 42.125C35.5417 41.875 35.5625 41.6667 35.6875 41.5C35.8542 41.3333 35.9792 41.1458 36.0625 40.9375C35.9375 40.3542 35.9167 39.9792 36 39.8125C36.0833 39.6042 36.1667 39.3958 36.25 39.1875C36.25 38.7708 36.1875 38.3958 36.0625 38.0625C36.1042 37.6042 36.125 37.3542 36.125 37.3125C36.125 37.2292 36.1667 37.1458 36.25 37.0625C36.125 36.8958 36.0417 36.7083 36 36.5C35.9583 36.2917 35.9167 36.0833 35.875 35.875C35.8333 35.75 35.75 35.6667 35.625 35.625C35.5417 35.5417 35.4583 35.4375 35.375 35.3125C35.5 34.8958 35.7292 34.5625 36.0625 34.3125C36.0625 34.0625 36.1042 33.875 36.1875 33.75C36.2708 33.5833 36.3542 33.3958 36.4375 33.1875C36.3542 32.9792 36.25 32.8542 36.125 32.8125C36.0417 32.7292 36 32.6042 36 32.4375C35.9583 32.1875 36.0208 31.9167 36.1875 31.625C36.3958 31.2917 36.5 30.9583 36.5 30.625C36.375 30.125 36.375 29.7917 36.5 29.625C36.625 29.4583 36.7083 29.2708 36.75 29.0625C36.5417 28.7292 36.3542 28.3958 36.1875 28.0625C36.0625 27.7292 35.9375 27.375 35.8125 27C35.7292 26.7917 35.7292 26.6042 35.8125 26.4375C35.8958 26.2708 35.9583 26.0833 36 25.875C36 25.5 35.9792 25.2708 35.9375 25.1875C35.8958 25.0625 35.8958 24.9167 35.9375 24.75C35.8125 24.2917 35.7917 23.9583 35.875 23.75C35.9583 23.5417 36.0417 23.3125 36.125 23.0625C36.125 22.5625 36.0208 22.1667 35.8125 21.875C35.6458 21.5833 35.4583 21.2917 35.25 21C35.25 20.7083 35.2708 20.4792 35.3125 20.3125C35.3958 20.1042 35.4792 19.8958 35.5625 19.6875C35.4375 18.9792 35.3958 18.4792 35.4375 18.1875C35.5208 17.8958 35.5208 17.5833 35.4375 17.25C35.4792 16.9583 35.5833 16.625 35.75 16.25C35.7083 15.7917 35.7292 15.5208 35.8125 15.4375C35.9375 15.3542 35.9792 15.1875 35.9375 14.9375C35.8542 14.7708 35.7292 14.6667 35.5625 14.625C35.4375 14.5417 35.3333 14.3958 35.25 14.1875C35.25 14.0208 35.3125 13.9167 35.4375 13.875C35.5625 13.8333 35.6458 13.75 35.6875 13.625C35.4375 13.5 35.2083 13.3958 35 13.3125C34.625 12.9792 34.2917 12.7917 34 12.75C33.7083 12.6667 33.5833 12.4583 33.625 12.125C33 11.9583 32.6458 11.8542 32.5625 11.8125C32.4792 11.7292 32.4167 11.6458 32.375 11.5625C32.3333 11.4375 32.2292 11.3542 32.0625 11.3125C31.9375 11.3125 31.8125 11.3333 31.6875 11.375C31.5208 11.4167 31.375 11.3958 31.25 11.3125C31.0417 11.1042 31 10.875 31.125 10.625C31.25 10.3333 31.4167 10.1042 31.625 9.9375C32.125 10.0208 32.4583 10.0625 32.625 10.0625C32.7917 10.0625 32.9583 10.0208 33.125 9.9375C33.5 9.77083 33.7083 9.72917 33.75 9.8125C33.8333 9.85417 33.9167 9.89583 34 9.9375C34.5 9.9375 34.75 10 34.75 10.125C34.7917 10.2083 34.8542 10.2708 34.9375 10.3125C35.5625 10.3125 36 10.2708 36.25 10.1875C36.5 10.1042 36.7083 10 36.875 9.875C37.2083 9.95833 37.4375 9.9375 37.5625 9.8125C37.7292 9.64583 37.9375 9.5625 38.1875 9.5625C38.7708 9.8125 39.1875 9.91667 39.4375 9.875C39.6875 9.83333 39.9375 9.79167 40.1875 9.75C40.4375 9.66667 40.6667 9.625 40.875 9.625C41.125 9.625 41.3542 9.6875 41.5625 9.8125C41.8125 9.6875 42.0417 9.54167 42.25 9.375C42.5 9.20833 42.7917 9.16667 43.125 9.25C43.4167 9.375 43.625 9.6875 43.75 10.1875C44.125 10.0208 44.5208 9.89583 44.9375 9.8125C45.3958 9.6875 45.8542 9.64583 46.3125 9.6875C46.8125 9.97917 47.1667 10.1042 47.375 10.0625C47.625 9.97917 47.8542 10 48.0625 10.125C48.8958 10.2917 49.5417 10.1458 50 9.6875C50.2083 9.5625 50.375 9.41667 50.5 9.25C50.6667 9.04167 50.875 8.89583 51.125 8.8125C51.375 8.85417 51.5 9.0625 51.5 9.4375C51.6667 9.39583 51.8125 9.33333 51.9375 9.25C52.0625 9.16667 52.2292 9.16667 52.4375 9.25C52.6875 8.95833 52.875 8.77083 53 8.6875C53.1667 8.60417 53.3542 8.52083 53.5625 8.4375C53.8542 8.85417 54.0208 9.04167 54.0625 9C54.1042 8.91667 54.1667 8.875 54.25 8.875C54.5 8.33333 54.75 7.95833 55 7.75C55.25 7.5 55.5 7.27083 55.75 7.0625C56.1667 7.02083 56.3958 6.875 56.4375 6.625C56.5208 6.375 56.6667 6.20833 56.875 6.125C57.25 6.125 57.4792 6.04167 57.5625 5.875C57.6458 5.70833 57.7292 5.54167 57.8125 5.375C57.9375 5.20833 58.0625 5.08333 58.1875 5C58.3542 4.875 58.5208 4.875 58.6875 5ZM82.0625 33.9375C82.1458 34.1458 82.1667 34.3333 82.125 34.5C82.0833 34.625 82.0625 34.7917 82.0625 35C81.8125 35.2917 81.6875 35.4792 81.6875 35.5625C81.7292 35.6042 81.7083 35.6875 81.625 35.8125C81.875 36.1458 81.9167 36.3333 81.75 36.375C81.625 36.4167 81.5208 36.5 81.4375 36.625C81.3542 36.7917 81.2708 36.9583 81.1875 37.125C81.1458 37.25 81.0833 37.4167 81 37.625C80.9583 37.9583 80.8958 38.1875 80.8125 38.3125C80.7708 38.3958 80.7292 38.5417 80.6875 38.75C80.8125 39.2083 80.7708 39.4792 80.5625 39.5625C80.3958 39.6458 80.25 39.7708 80.125 39.9375C80.1667 40.6875 80.0833 41.2917 79.875 41.75C79.7083 42.2083 79.6667 42.6875 79.75 43.1875C79.6667 43.3958 79.5625 43.5833 79.4375 43.75C79.3542 43.9167 79.2708 44.1042 79.1875 44.3125C79.0208 44.7708 79.0208 45.125 79.1875 45.375C79.2292 45.5833 79.2292 45.75 79.1875 45.875C79.1458 45.9583 79.1042 46.0833 79.0625 46.25C78.7708 46.3333 78.4583 46.375 78.125 46.375C77.8333 46.375 77.5833 46.2708 77.375 46.0625C77.1667 46.1458 76.9375 46.1667 76.6875 46.125C76.4792 46.0833 76.2708 46.0417 76.0625 46C75.3542 46.2083 74.9792 46.1042 74.9375 45.6875C74.4792 46.0625 74.0417 46.2083 73.625 46.125C73.25 46.0833 73 46.125 72.875 46.25C72.6667 46.2083 72.2917 46.1875 71.75 46.1875C71.25 46.2292 70.9583 46.1667 70.875 46C70.7083 46.0417 70.5833 46.1042 70.5 46.1875C70.4583 46.3125 70.3542 46.4167 70.1875 46.5C69.9792 46.4167 69.6667 46.375 69.25 46.375C68.875 46.4167 68.5833 46.3958 68.375 46.3125C68.1667 46.3958 67.9167 46.4583 67.625 46.5C67.3333 46.5417 67.1458 46.3958 67.0625 46.0625C66.9375 46.1458 66.7917 46.2292 66.625 46.3125C66.5 46.3958 66.375 46.4792 66.25 46.5625C66.0417 46.5208 65.875 46.5417 65.75 46.625C65.6667 46.7083 65.5417 46.7292 65.375 46.6875C65.2083 46.6875 65.0625 46.6042 64.9375 46.4375C64.8125 46.3125 64.625 46.2708 64.375 46.3125C64.125 46.4375 63.8542 46.4583 63.5625 46.375C63.3125 46.2917 63.0625 46.25 62.8125 46.25C62.2292 46.4583 61.8958 46.5208 61.8125 46.4375C61.7292 46.3958 61.6458 46.3333 61.5625 46.25C61.2292 46.2083 61 46.2083 60.875 46.25C60.7917 46.2917 60.6458 46.3333 60.4375 46.375C60.2708 46.3333 60.125 46.2917 60 46.25C59.9167 46.25 59.8125 46.25 59.6875 46.25C59.3958 46.2083 59.1875 46.2083 59.0625 46.25C58.9792 46.3333 58.8333 46.3542 58.625 46.3125C58.3333 45.9375 58.1458 45.75 58.0625 45.75C57.9792 45.75 57.9375 45.6875 57.9375 45.5625C58.2292 45.1458 58.4792 44.8333 58.6875 44.625C58.9375 44.5417 59.125 44.4375 59.25 44.3125C59.375 44.1458 59.6042 44.0833 59.9375 44.125C60.0625 44 60.1042 43.8958 60.0625 43.8125C60.0208 43.6875 59.9792 43.5208 59.9375 43.3125C60.0625 43.2292 60.1458 43.1667 60.1875 43.125C60.2708 43.0833 60.3958 43.0208 60.5625 42.9375C60.6458 42.8125 60.7708 42.7083 60.9375 42.625C61.1042 42.5 61.2292 42.375 61.3125 42.25C61.2292 42.1667 61.1458 42.0625 61.0625 41.9375C60.9792 41.7708 60.9792 41.6042 61.0625 41.4375C60.8958 41.1042 60.8542 40.9167 60.9375 40.875C61.0625 40.7917 61.1458 40.6875 61.1875 40.5625C61.3542 40.4792 61.4375 40.375 61.4375 40.25C61.4792 40.0833 61.5417 39.9375 61.625 39.8125C61.5 39.3125 61.4792 39.0625 61.5625 39.0625C61.6875 39.0208 61.7708 38.9583 61.8125 38.875C61.8542 38.6667 61.8333 38.5417 61.75 38.5C61.6667 38.4167 61.5833 38.3333 61.5 38.25C61.5 38.0417 61.4375 37.8958 61.3125 37.8125C61.1875 37.6875 61.0833 37.5417 61 37.375C61 36.5417 61.1042 35.875 61.3125 35.375C61.5208 34.875 61.7292 34.4375 61.9375 34.0625C61.8542 33.8958 61.75 33.8125 61.625 33.8125C61.5 33.7708 61.3958 33.6875 61.3125 33.5625C61.3125 33.3542 61.3333 33.2083 61.375 33.125C61.4167 33 61.4792 32.875 61.5625 32.75C61.5625 32.4167 61.5 32.1458 61.375 31.9375C61.25 31.7292 61.2292 31.3958 61.3125 30.9375C61.1458 30.4792 61.1042 30.2292 61.1875 30.1875C61.2708 30.1042 61.3333 30.0208 61.375 29.9375C61.4583 29.4375 61.4792 29.1667 61.4375 29.125C61.3958 29.0833 61.375 29.0208 61.375 28.9375C61.5417 28.6042 61.5417 28.2917 61.375 28C61.25 27.7083 61.2292 27.3958 61.3125 27.0625C61.1875 26.6458 61.0833 26.4167 61 26.375C60.9583 26.3333 60.9583 26.2708 61 26.1875C61 25.9792 61.0625 25.8333 61.1875 25.75C61.3125 25.6667 61.4167 25.5417 61.5 25.375C61.3333 25.125 61.2917 24.7292 61.375 24.1875C61.125 24.1042 60.9167 24 60.75 23.875C60.5833 23.75 60.5208 23.5208 60.5625 23.1875C60.4792 23.0625 60.375 22.9583 60.25 22.875C60.1667 22.7917 60.1042 22.6667 60.0625 22.5C60.1458 22.1667 60.3333 21.9375 60.625 21.8125C60.9167 21.6458 61.1667 21.4167 61.375 21.125C61.25 20.7917 61.1875 20.4792 61.1875 20.1875C61.1875 19.8958 61.1667 19.6042 61.125 19.3125C61.2917 18.8958 61.3333 18.6667 61.25 18.625C61.2083 18.5417 61.2292 18.4375 61.3125 18.3125C61.5208 17.9792 61.5625 17.7917 61.4375 17.75C61.3542 17.6667 61.2708 17.5417 61.1875 17.375C61.2708 17.2083 61.3333 17.0833 61.375 17C61.4167 16.875 61.4792 16.75 61.5625 16.625C61.3542 16.125 61.25 15.75 61.25 15.5C61.25 15.2083 61.2083 14.9583 61.125 14.75L60.75 13.9375C60.7083 13.7292 60.625 13.6042 60.5 13.5625C60.4167 13.5208 60.3333 13.4583 60.25 13.375C60.2917 13.1667 60.25 13.0417 60.125 13C60 12.9583 59.9167 12.8333 59.875 12.625C59.8333 12.3333 59.7708 12.1667 59.6875 12.125C59.6042 12.0833 59.5417 12.0208 59.5 11.9375C59.125 11.5208 58.9792 11.2917 59.0625 11.25C59.1458 11.1667 59.2292 11.0833 59.3125 11C58.8542 10.8333 58.6042 10.7292 58.5625 10.6875C58.5208 10.6042 58.4792 10.5208 58.4375 10.4375C57.8125 10.3958 57.5208 10.2708 57.5625 10.0625C57.6042 9.8125 57.6042 9.58333 57.5625 9.375C57.7292 9.20833 57.9583 9.14583 58.25 9.1875C58.5417 9.22917 58.7917 9.1875 59 9.0625C59.25 9.0625 59.4583 9.10417 59.625 9.1875C59.8333 9.27083 60.0833 9.3125 60.375 9.3125C60.7917 9.10417 61.0625 9.02083 61.1875 9.0625C61.3125 9.0625 61.4375 9.0625 61.5625 9.0625C61.7708 8.9375 62 8.875 62.25 8.875C62.5 8.83333 62.6875 8.91667 62.8125 9.125C63.3125 8.91667 63.5833 8.83333 63.625 8.875C63.7083 8.91667 63.7917 8.95833 63.875 9C64.0833 8.91667 64.2708 8.875 64.4375 8.875C64.6042 8.83333 64.7708 8.85417 64.9375 8.9375C65.3125 8.89583 65.625 8.83333 65.875 8.75C66.1667 8.625 66.5208 8.5625 66.9375 8.5625C67.2708 8.8125 67.5 8.9375 67.625 8.9375C67.7917 8.89583 67.9167 8.91667 68 9C68 9.20833 67.9583 9.35417 67.875 9.4375C67.8333 9.47917 67.8542 9.58333 67.9375 9.75C67.8542 9.95833 67.7917 10.125 67.75 10.25C67.7083 10.3333 67.6458 10.4375 67.5625 10.5625C67.6458 11.0625 67.7083 11.3333 67.75 11.375C67.8333 11.375 67.875 11.4167 67.875 11.5C67.9167 11.75 67.8125 11.9583 67.5625 12.125C67.6458 12.25 67.7083 12.3542 67.75 12.4375C67.7917 12.5208 67.8333 12.6458 67.875 12.8125C67.7917 13.0208 67.7292 13.2292 67.6875 13.4375C67.6875 13.6042 67.7292 13.7917 67.8125 14C67.6875 14.4167 67.6042 14.6458 67.5625 14.6875C67.7708 15.2292 67.8542 15.5833 67.8125 15.75C67.6042 16.0833 67.5 16.3542 67.5 16.5625C67.5417 16.7708 67.5625 16.9792 67.5625 17.1875C67.7708 17.5625 67.875 18.1042 67.875 18.8125C67.9583 18.9375 68.0417 19.0417 68.125 19.125C68.2083 19.2083 68.2917 19.3125 68.375 19.4375C68.375 19.6875 68.3125 19.875 68.1875 20C68.1042 20.125 68.0417 20.2917 68 20.5C67.6667 20.75 67.5 20.9167 67.5 21C67.5417 21.0833 67.5625 21.2083 67.5625 21.375C67.7292 21.9167 67.7292 22.2708 67.5625 22.4375C67.3958 22.6042 67.3542 22.8333 67.4375 23.125C67.8125 23.4583 67.9583 23.6458 67.875 23.6875C67.8333 23.6875 67.7917 23.7292 67.75 23.8125C67.7083 24.3958 67.6875 24.8542 67.6875 25.1875C67.6875 25.4792 67.6875 25.8333 67.6875 26.25C68.4375 26.6667 68.8125 27.0208 68.8125 27.3125C68.8125 27.6042 68.6458 27.7708 68.3125 27.8125C67.9792 27.8125 67.7708 27.9375 67.6875 28.1875C67.6875 28.3542 67.7292 28.4792 67.8125 28.5625C67.8958 28.6458 67.9583 28.7708 68 28.9375C67.9583 29.2292 67.875 29.4583 67.75 29.625C67.9583 30.1667 68 30.5833 67.875 30.875C68 31.2083 68.0208 31.5208 67.9375 31.8125C67.8542 32.0625 67.7708 32.3333 67.6875 32.625C67.7708 32.7917 67.8542 32.9375 67.9375 33.0625C68.0625 33.1458 68.1458 33.2917 68.1875 33.5C68.1875 33.7083 68.125 33.875 68 34C67.9167 34.0833 67.8333 34.1667 67.75 34.25C67.7917 34.4167 67.875 34.5208 68 34.5625C68.125 34.5625 68.2292 34.6042 68.3125 34.6875C68.3542 34.8542 68.3333 35 68.25 35.125C68.1667 35.2083 68.0833 35.2917 68 35.375C67.9167 35.4583 67.8542 35.5625 67.8125 35.6875C67.8125 35.8125 67.7708 35.9167 67.6875 36C67.6458 36.25 67.6042 36.5 67.5625 36.75C67.5625 37 67.625 37.2292 67.75 37.4375C67.8333 37.7292 67.8333 38 67.75 38.25C67.7083 38.4583 67.6667 38.7083 67.625 39C67.75 39.0833 67.875 39.1458 68 39.1875C68.1667 39.2292 68.2917 39.3333 68.375 39.5C68.4167 39.625 68.4375 39.7708 68.4375 39.9375C68.4792 40.1042 68.4583 40.2708 68.375 40.4375C68.625 40.5208 68.9375 40.5208 69.3125 40.4375C69.7292 40.3125 70.0625 40.2708 70.3125 40.3125C70.4792 40.3958 70.6458 40.4583 70.8125 40.5C71.0208 40.5417 71.1667 40.6458 71.25 40.8125C71.4583 40.7708 71.75 40.7292 72.125 40.6875C72.5417 40.6042 72.8542 40.5833 73.0625 40.625C73.4375 40.875 73.7292 40.9583 73.9375 40.875C74.1875 40.7917 74.4167 40.7708 74.625 40.8125C74.8333 40.7292 75 40.6042 75.125 40.4375C75.25 40.2292 75.4792 40.125 75.8125 40.125C75.8958 40.0417 75.9792 39.9583 76.0625 39.875C76.1458 39.75 76.2708 39.6875 76.4375 39.6875C76.5208 39.6042 76.5833 39.5 76.625 39.375C76.7083 39.2083 76.8125 39.0833 76.9375 39C77.3542 38.9583 77.5833 38.875 77.625 38.75C77.6667 38.5833 77.7292 38.4583 77.8125 38.375C77.9792 38.3333 78.0833 38.2708 78.125 38.1875C78.2083 38.1042 78.3125 38.0208 78.4375 37.9375C78.8542 37.9792 79.0417 37.875 79 37.625C79 37.375 79.0417 37.1667 79.125 37C79.25 36.875 79.4167 36.7708 79.625 36.6875C79.8333 36.5625 80.0208 36.4167 80.1875 36.25C80.1875 36.125 80.1458 36.0208 80.0625 35.9375C80.0208 35.8125 80.0417 35.6875 80.125 35.5625C80.2917 35.5208 80.5 35.375 80.75 35.125C81.0417 34.7083 81.2083 34.4792 81.25 34.4375C81.3333 34.3958 81.4167 34.3333 81.5 34.25L82.0625 33.9375ZM103 36.125C103.333 36.25 103.479 36.375 103.438 36.5C103.396 36.5833 103.417 36.7083 103.5 36.875C103.292 37.3333 103.167 37.6667 103.125 37.875C103.083 38.0833 102.958 38.2292 102.75 38.3125C102.792 38.5208 102.75 38.6875 102.625 38.8125C102.542 38.8958 102.479 39.0417 102.438 39.25C102.188 39.5417 102.021 39.7917 101.938 40C101.854 40.2083 101.729 40.375 101.562 40.5C101.479 40.9583 101.354 41.2083 101.188 41.25C101.062 41.2917 100.958 41.4167 100.875 41.625C101.083 42.0833 101.146 42.375 101.062 42.5C101.021 42.5833 101.021 42.7292 101.062 42.9375C100.812 43.2708 100.625 43.4583 100.5 43.5C100.542 43.7083 100.542 43.8958 100.5 44.0625C100.5 44.1875 100.542 44.3542 100.625 44.5625C100.5 44.9375 100.438 45.1667 100.438 45.25C100.438 45.4167 100.375 45.5417 100.25 45.625C100.167 45.6667 100.083 45.7292 100 45.8125C100.042 46.0208 100 46.1875 99.875 46.3125C99.7917 46.4375 99.7083 46.5417 99.625 46.625C99.4167 46.625 99.2917 46.5625 99.25 46.4375C99.2083 46.3125 99.1458 46.1875 99.0625 46.0625C98.5625 46.2292 98.2083 46.2292 98 46.0625C97.8333 45.9375 97.6458 45.8125 97.4375 45.6875C97.2708 45.6875 97.125 45.7083 97 45.75C96.9167 45.7917 96.8333 45.8333 96.75 45.875C96.4167 45.75 96.2292 45.7708 96.1875 45.9375C96.1458 46.0625 96.0625 46.1667 95.9375 46.25C95.5208 46.2917 95.2708 46.3333 95.1875 46.375C95.1042 46.4167 95.0208 46.4583 94.9375 46.5C94.5208 46.5 94.2708 46.5208 94.1875 46.5625C94.1458 46.6042 94.0833 46.625 94 46.625C93.875 46.5833 93.7708 46.5208 93.6875 46.4375C93.6042 46.3542 93.5 46.2708 93.375 46.1875C93.1667 46.1042 92.9583 46.0625 92.75 46.0625C92.5417 46.1042 92.3125 46.1667 92.0625 46.25C91.5625 46.1667 91.2917 46.0833 91.25 46C91.2083 45.9583 91.125 45.9167 91 45.875C90.4583 46.0833 90.125 46.1458 90 46.0625C89.9167 46.0208 89.8125 45.9792 89.6875 45.9375C89.5625 45.9792 89.4167 45.9792 89.25 45.9375C89.125 45.8958 89 45.8542 88.875 45.8125C88.7083 45.8958 88.5625 46 88.4375 46.125C88.3125 46.25 88.1667 46.3542 88 46.4375C87.8333 46.4375 87.7083 46.4792 87.625 46.5625C87.5417 46.6458 87.4167 46.6875 87.25 46.6875C86.7083 46.5208 86.375 46.4583 86.25 46.5C86.1667 46.5417 86.0208 46.5417 85.8125 46.5C85.6875 46.4167 85.5833 46.3125 85.5 46.1875C85.4583 46.0625 85.3958 45.9375 85.3125 45.8125C84.7708 45.8125 84.3958 45.9167 84.1875 46.125C84.1042 46.125 84 46.125 83.875 46.125C83.75 46.1667 83.625 46.1667 83.5 46.125C83.4167 46.0417 83.3333 45.9792 83.25 45.9375C83.1667 45.8542 83.0625 45.7708 82.9375 45.6875C82.7292 45.7292 82.5208 45.7708 82.3125 45.8125C82.1042 45.8542 81.9583 45.9375 81.875 46.0625C81.7083 46.0625 81.5625 46.0833 81.4375 46.125C81.3542 46.1667 81.25 46.2083 81.125 46.25C80.8333 46.0833 80.6667 46.0417 80.625 46.125C80.5833 46.2083 80.5 46.25 80.375 46.25C80.0417 46 79.8542 45.9167 79.8125 46C79.7292 46.0417 79.625 46.0625 79.5 46.0625C79.75 45.7292 79.9167 45.5417 80 45.5C80.0833 45.4583 80.1458 45.3958 80.1875 45.3125C80.6458 44.3125 81.0417 43.4583 81.375 42.75C81.4167 42.375 81.4792 42.1042 81.5625 41.9375C81.6875 41.7292 81.7083 41.5 81.625 41.25C81.75 40.9167 81.9167 40.6042 82.125 40.3125C82.375 40.0208 82.3958 39.6667 82.1875 39.25C82.2292 39.0417 82.2708 38.875 82.3125 38.75C82.3958 38.625 82.4375 38.4583 82.4375 38.25C82.5208 38.125 82.6042 38.0208 82.6875 37.9375C82.8125 37.8125 82.8542 37.6458 82.8125 37.4375C82.8542 37.3125 82.875 37.1875 82.875 37.0625C82.9167 36.9375 82.9375 36.7708 82.9375 36.5625C83.2708 36.1458 83.4583 35.8958 83.5 35.8125C83.5833 35.6875 83.6875 35.5833 83.8125 35.5C84.0208 35.1667 84.1875 34.8542 84.3125 34.5625C84.4792 34.2292 84.6667 33.8958 84.875 33.5625C84.9583 33.2292 84.9792 32.9583 84.9375 32.75C85.0625 32.2917 85.1042 32.0625 85.0625 32.0625C85.0208 32.0208 85 31.9583 85 31.875C85.2083 31.3333 85.3958 30.8333 85.5625 30.375C85.7292 29.875 85.9583 29.4167 86.25 29C86.4167 28.5417 86.625 28.1875 86.875 27.9375C86.875 27.8542 86.9375 27.6042 87.0625 27.1875C87.1875 26.7292 87.25 26.4583 87.25 26.375C87.5417 26.0417 87.7083 25.625 87.75 25.125C87.8333 24.5833 87.9792 24.1458 88.1875 23.8125C88.1458 23.5208 88.1667 23.2917 88.25 23.125C88.3333 22.9167 88.4167 22.7292 88.5 22.5625C88.5833 22.3958 88.6667 22.2292 88.75 22.0625C88.875 21.8958 88.9375 21.6875 88.9375 21.4375C89.0208 21.3125 89.1042 21.1875 89.1875 21.0625C89.2708 20.9375 89.3333 20.7708 89.375 20.5625C89.5417 20.3542 89.6875 20.0417 89.8125 19.625C89.7292 18.9167 89.8542 18.375 90.1875 18C90.5625 17.625 90.875 17.2292 91.125 16.8125C91 16.3958 90.9583 16.1667 91 16.125C91.0833 16.0417 91.1042 15.9167 91.0625 15.75C91.1875 15.5833 91.2917 15.375 91.375 15.125C91.5 14.875 91.5 14.625 91.375 14.375C91.25 14.25 91.0833 14.2292 90.875 14.3125C90.6667 14.3542 90.4583 14.3333 90.25 14.25C89.7083 14.4167 89.3125 14.5 89.0625 14.5C88.8125 14.5 88.5833 14.4583 88.375 14.375C88.1667 14.4583 87.8542 14.5417 87.4375 14.625C86.6042 14.4167 85.875 14.375 85.25 14.5C85.0417 14.4583 84.8542 14.4167 84.6875 14.375C84.5625 14.3333 84.3958 14.3125 84.1875 14.3125C83.8542 14.3958 83.5625 14.5 83.3125 14.625C83.1042 14.75 82.8958 14.875 82.6875 15H81.9375C81.7708 15.125 81.5833 15.25 81.375 15.375C81.1667 15.4583 80.9583 15.5417 80.75 15.625C80.5417 16.1667 80.3542 16.4583 80.1875 16.5C80.0208 16.5417 79.875 16.6042 79.75 16.6875C79.375 17.2708 79.0833 17.625 78.875 17.75C78.6667 17.875 78.5 18.0833 78.375 18.375C78.0833 18.4583 77.8958 18.5833 77.8125 18.75C77.6875 18.9167 77.5208 18.9375 77.3125 18.8125C77.3542 18.6042 77.4167 18.4375 77.5 18.3125C77.5417 18.1875 77.6042 18.0208 77.6875 17.8125C77.8125 17.3958 77.8958 17.1667 77.9375 17.125L78.5 16.375C78.5833 16.2083 78.6458 16.0208 78.6875 15.8125C78.7292 15.6042 78.7708 15.3958 78.8125 15.1875C79.0625 14.8125 79.2708 14.4583 79.4375 14.125C79.6458 13.5833 79.7917 13.1458 79.875 12.8125C79.9583 12.4375 80.1042 12.125 80.3125 11.875C80.2292 11.7083 80.1875 11.5417 80.1875 11.375C80.2292 11.2083 80.2083 11.0625 80.125 10.9375C80.25 10.6875 80.375 10.4375 80.5 10.1875C80.625 9.89583 80.6875 9.54167 80.6875 9.125C80.8125 9.08333 80.9167 9.08333 81 9.125C81.125 9.125 81.2917 9.08333 81.5 9C82 9.16667 82.2917 9.22917 82.375 9.1875C82.5 9.10417 82.6458 9.0625 82.8125 9.0625C83.3125 8.9375 83.5625 8.97917 83.5625 9.1875C83.7708 9.14583 83.9375 9.125 84.0625 9.125C84.2292 9.125 84.3958 9.08333 84.5625 9C84.7292 8.95833 84.8542 8.91667 84.9375 8.875C85.0208 8.79167 85.1667 8.72917 85.375 8.6875C85.6667 8.64583 85.9167 8.70833 86.125 8.875C86.1667 9 86.2083 9.125 86.25 9.25C86.3333 9.375 86.4583 9.45833 86.625 9.5C86.7917 9.45833 86.9375 9.39583 87.0625 9.3125C87.1875 9.22917 87.3542 9.22917 87.5625 9.3125C87.7292 9.27083 87.8333 9.20833 87.875 9.125C87.9583 9.04167 88.0625 8.95833 88.1875 8.875C88.3958 8.95833 88.6042 9.02083 88.8125 9.0625C89.0208 9.0625 89.25 9.02083 89.5 8.9375C89.9583 9.0625 90.2292 9.125 90.3125 9.125C90.3958 9.08333 90.5 9.08333 90.625 9.125C91.0417 9.375 91.3125 9.45833 91.4375 9.375C91.5625 9.29167 91.7292 9.20833 91.9375 9.125C92.1875 9.125 92.4167 9.14583 92.625 9.1875C92.8333 9.22917 93.0417 9.27083 93.25 9.3125C93.375 9.27083 93.4792 9.22917 93.5625 9.1875C93.6875 9.10417 93.8333 9.0625 94 9.0625C94.2083 9.22917 94.4792 9.3125 94.8125 9.3125C94.9375 9.27083 95.0208 9.20833 95.0625 9.125C95.1458 9 95.2917 8.9375 95.5 8.9375C95.6667 8.97917 95.7917 9.0625 95.875 9.1875C95.9583 9.27083 96.0625 9.35417 96.1875 9.4375C96.3958 9.35417 96.6667 9.33333 97 9.375C97.3333 9.375 97.6042 9.41667 97.8125 9.5C98.1042 9.29167 98.4167 9.14583 98.75 9.0625C99.125 8.97917 99.5417 8.89583 100 8.8125C100.167 9.22917 100.271 9.45833 100.312 9.5C100.354 9.5 100.396 9.54167 100.438 9.625C100.188 9.875 100.188 10.1042 100.438 10.3125C100.312 10.7292 100.062 11.1042 99.6875 11.4375C99.7292 11.5208 99.7292 11.6458 99.6875 11.8125C99.6875 11.9375 99.7083 12.0625 99.75 12.1875C99.5 12.5208 99.2708 12.875 99.0625 13.25C98.8542 13.625 98.625 13.9792 98.375 14.3125C98.375 14.8542 98.2917 15.25 98.125 15.5C97.9583 15.7083 97.875 16.0208 97.875 16.4375C97.6667 16.6042 97.5417 16.8333 97.5 17.125C97.4583 17.4167 97.3333 17.6667 97.125 17.875C97.25 18.2083 97.2708 18.3958 97.1875 18.4375C97.1042 18.4792 97.0417 18.5417 97 18.625C97.125 18.9583 97.1042 19.25 96.9375 19.5C96.7292 19.5833 96.5625 19.7292 96.4375 19.9375C96.3542 20.1042 96.3333 20.375 96.375 20.75C96 21.5 95.6875 21.9792 95.4375 22.1875C95.4375 22.6042 95.4792 22.8958 95.5625 23.0625C95.1875 23.5625 95 23.9375 95 24.1875C95 24.3958 94.9583 24.6042 94.875 24.8125C94.3333 25.1042 94.125 25.6667 94.25 26.5C94.125 26.5833 94 26.7292 93.875 26.9375C93.75 27.1458 93.625 27.3958 93.5 27.6875C93.4167 27.9375 93.3333 28.2083 93.25 28.5C93.2083 28.75 93.1875 28.9583 93.1875 29.125C92.8542 29.5833 92.6458 29.8958 92.5625 30.0625C92.5208 30.1875 92.5208 30.3542 92.5625 30.5625C92.4792 30.7708 92.4167 30.9792 92.375 31.1875C92.3333 31.3958 92.2708 31.6042 92.1875 31.8125C92.2292 32.1875 92.1042 32.5208 91.8125 32.8125C91.6875 33.1875 91.5833 33.4167 91.5 33.5C91.4167 33.5833 91.3333 33.6667 91.25 33.75C91.2917 33.9167 91.3333 34.0417 91.375 34.125C91.4583 34.1667 91.5 34.2917 91.5 34.5C91.125 34.6667 90.8958 34.875 90.8125 35.125C90.5625 35.3333 90.3333 35.6875 90.125 36.1875C90.1667 36.6458 90.1458 36.9375 90.0625 37.0625C89.9792 37.1458 89.9167 37.2708 89.875 37.4375C89.7917 37.9375 89.6875 38.3125 89.5625 38.5625C89.4792 38.7708 89.4167 39.0417 89.375 39.375C89.1667 39.4583 89.0208 39.5833 88.9375 39.75C88.8542 39.875 88.75 40.0208 88.625 40.1875C89 40.6458 89.3125 40.8125 89.5625 40.6875C89.8125 40.5625 90.0417 40.4792 90.25 40.4375C90.4583 40.6875 90.6042 40.8333 90.6875 40.875C90.8125 40.9167 90.9167 40.9375 91 40.9375C91.5 40.8542 91.8333 40.8125 92 40.8125C92.1667 40.7708 92.3125 40.7292 92.4375 40.6875C92.8542 40.9375 93.1458 41.0417 93.3125 41C93.4792 40.9583 93.6667 40.9792 93.875 41.0625C94.125 40.9792 94.3125 40.8333 94.4375 40.625C94.6042 40.4167 94.8958 40.3542 95.3125 40.4375C95.4375 40.4792 95.5417 40.5417 95.625 40.625C95.75 40.6667 95.875 40.7083 96 40.75C96.6667 40.75 97.2083 40.7083 97.625 40.625C98.0417 40.625 98.3333 40.5417 98.5 40.375C98.7083 40.375 98.8333 40.3333 98.875 40.25C98.9583 40.125 99.0833 40.0625 99.25 40.0625C99.4167 39.7292 99.5625 39.4583 99.6875 39.25C100.104 39.0417 100.354 38.8542 100.438 38.6875C100.562 38.4792 100.708 38.2708 100.875 38.0625C101 37.5625 101.25 37.3333 101.625 37.375C101.875 37.0417 102.021 36.8542 102.062 36.8125C102.146 36.7708 102.208 36.6875 102.25 36.5625C102.583 36.4792 102.771 36.3958 102.812 36.3125C102.854 36.2292 102.917 36.1667 103 36.125ZM113.188 32.5C113.229 32.7917 113.146 33.0625 112.938 33.3125C112.771 33.5625 112.646 33.8125 112.562 34.0625C112.729 34.3125 112.812 34.6042 112.812 34.9375C112.854 35.2292 112.854 35.5417 112.812 35.875C112.771 36.2083 112.729 36.5417 112.688 36.875C112.688 37.2083 112.729 37.5208 112.812 37.8125C112.688 38.1042 112.625 38.4167 112.625 38.75C112.667 39.0833 112.708 39.4167 112.75 39.75C112.625 40.2917 112.604 40.6875 112.688 40.9375C112.771 41.1458 112.812 41.4167 112.812 41.75C112.562 42.2917 112.458 42.6667 112.5 42.875C112.583 43.0833 112.583 43.25 112.5 43.375C112.708 44 112.792 44.375 112.75 44.5C112.708 44.625 112.729 44.7708 112.812 44.9375C112.729 45.0208 112.688 45.1667 112.688 45.375C112.688 45.5833 112.646 45.75 112.562 45.875C112.271 45.875 112.104 45.7917 112.062 45.625C112.021 45.4583 111.938 45.3333 111.812 45.25C111.688 45.2917 111.479 45.3125 111.188 45.3125C110.938 45.3125 110.708 45.2708 110.5 45.1875C110.333 45.2708 110.188 45.375 110.062 45.5C109.979 45.625 109.833 45.6458 109.625 45.5625C109.542 45.6458 109.479 45.7708 109.438 45.9375C109.396 46.0625 109.292 46.1667 109.125 46.25C108.833 45.9167 108.667 45.6667 108.625 45.5C108.625 45.2917 108.583 45.125 108.5 45C107.792 45.4583 107.312 45.5833 107.062 45.375C106.562 45.5 106.125 45.4167 105.75 45.125C105.708 44.4583 105.792 44.0625 106 43.9375C105.917 43.7292 105.854 43.5208 105.812 43.3125C105.812 43.0625 105.792 42.8333 105.75 42.625C105.833 42.4583 105.917 42.25 106 42C106.083 41.75 106.083 41.4792 106 41.1875C105.833 40.7292 105.771 40.375 105.812 40.125C105.896 39.875 105.917 39.5833 105.875 39.25C105.958 38.7083 106.062 38.3542 106.188 38.1875C106.312 38.0208 106.333 37.8125 106.25 37.5625C106.125 37.2292 106.042 36.875 106 36.5C105.958 36.125 106.042 35.7917 106.25 35.5C106.167 35.2917 106.104 35.0833 106.062 34.875C106.062 34.625 106.021 34.3958 105.938 34.1875C105.938 33.8542 105.958 33.5833 106 33.375C106 33.25 105.979 33.1458 105.938 33.0625C105.938 32.9375 105.938 32.8125 105.938 32.6875C105.729 32.4792 105.646 32.125 105.688 31.625C105.729 31.125 105.854 30.7917 106.062 30.625C105.854 30.0417 105.771 29.375 105.812 28.625C105.854 27.8333 105.833 27.0833 105.75 26.375C105.917 26.125 105.958 25.7917 105.875 25.375C106 25 106.042 24.7292 106 24.5625C105.958 24.3958 105.979 24.2292 106.062 24.0625C105.938 23.8542 105.875 23.5417 105.875 23.125C105.917 22.7083 106.042 22.4167 106.25 22.25C106.167 22.0833 106.083 21.8958 106 21.6875C105.958 21.4792 106 21.3125 106.125 21.1875C106.042 20.8958 105.958 20.6667 105.875 20.5C105.792 20.2917 105.729 20.0417 105.688 19.75C105.646 19.5833 105.667 19.4792 105.75 19.4375C105.833 19.3542 105.854 19.2083 105.812 19C106.104 18.625 106.271 18.3125 106.312 18.0625C106.354 17.8125 106.521 17.6875 106.812 17.6875C106.312 17.1458 106 16.8333 105.875 16.75C105.833 16.625 105.771 16.5208 105.688 16.4375C105.604 16.3125 105.583 16.1458 105.625 15.9375C105.75 15.4375 105.729 15.0625 105.562 14.8125C105.396 14.5625 105.208 14.3333 105 14.125C104.958 13.9583 104.917 13.8125 104.875 13.6875C104.833 13.5625 104.833 13.3958 104.875 13.1875C105 12.2708 104.708 11.75 104 11.625C103.833 11.2917 103.708 11.125 103.625 11.125C103.583 11.125 103.521 11.0833 103.438 11C103.229 10.5833 102.979 10.4167 102.688 10.5C102.438 10.5417 102.229 10.4792 102.062 10.3125C102.062 10.1042 102 9.97917 101.875 9.9375C101.75 9.89583 101.646 9.8125 101.562 9.6875C101.562 9.52083 101.625 9.41667 101.75 9.375C101.875 9.33333 102 9.29167 102.125 9.25C102.333 9.41667 102.583 9.5 102.875 9.5C103.083 9.45833 103.271 9.35417 103.438 9.1875C103.646 9.02083 103.875 8.95833 104.125 9C104.542 9.20833 104.771 9.25 104.812 9.125C104.896 9 105.042 8.9375 105.25 8.9375C105.542 9.39583 105.75 9.58333 105.875 9.5C106.042 9.41667 106.188 9.3125 106.312 9.1875C106.521 9.10417 106.771 9.08333 107.062 9.125C107.396 9.16667 107.667 9.25 107.875 9.375C108.125 9.29167 108.375 9.27083 108.625 9.3125C108.875 9.3125 109.167 9.29167 109.5 9.25C109.833 9.375 110.042 9.39583 110.125 9.3125C110.208 9.1875 110.333 9.10417 110.5 9.0625C110.625 9.10417 110.708 9.1875 110.75 9.3125C110.833 9.39583 110.917 9.47917 111 9.5625C111.208 9.60417 111.375 9.60417 111.5 9.5625C111.625 9.52083 111.75 9.45833 111.875 9.375C112.542 9.125 112.875 9.16667 112.875 9.5C112.875 9.83333 112.833 10.1667 112.75 10.5C112.792 10.625 112.833 10.7292 112.875 10.8125C112.958 10.8958 113.021 11 113.062 11.125C112.771 11.5833 112.583 11.8542 112.5 11.9375C112.458 12.0208 112.438 12.1042 112.438 12.1875C112.396 12.3958 112.438 12.5833 112.562 12.75C112.729 12.9167 112.771 13.1458 112.688 13.4375C112.354 13.8542 112.229 14.0833 112.312 14.125C112.438 14.1667 112.562 14.2083 112.688 14.25C112.812 14.7917 112.833 15.1042 112.75 15.1875C112.667 15.2292 112.604 15.3333 112.562 15.5C112.646 15.8333 112.729 16.0625 112.812 16.1875C112.729 16.3958 112.688 16.6042 112.688 16.8125C112.688 16.9792 112.688 17.1667 112.688 17.375C112.646 17.5833 112.583 17.7708 112.5 17.9375C112.458 18.1042 112.438 18.2917 112.438 18.5C112.438 18.8333 112.5 19.1458 112.625 19.4375C112.75 19.6875 112.75 19.9583 112.625 20.25C112.75 21.5 112.729 22.4583 112.562 23.125C112.604 23.6667 112.646 24.0833 112.688 24.375C112.729 24.625 112.688 24.8542 112.562 25.0625C112.604 25.1875 112.667 25.2917 112.75 25.375C112.833 25.4583 112.875 25.5625 112.875 25.6875C112.917 26.1042 112.812 26.4375 112.562 26.6875C112.312 27.1875 112.271 27.5 112.438 27.625C112.604 27.75 112.729 27.9167 112.812 28.125C112.854 28.4583 112.812 28.7083 112.688 28.875C112.604 29.0417 112.583 29.2708 112.625 29.5625C112.667 29.7708 112.729 29.9792 112.812 30.1875C112.896 30.3542 112.958 30.5417 113 30.75C112.708 30.9583 112.583 31.1458 112.625 31.3125C112.667 31.4375 112.667 31.5417 112.625 31.625C112.708 31.7917 112.812 31.9375 112.938 32.0625C113.062 32.1458 113.146 32.2917 113.188 32.5ZM142.188 9.0625C142.354 9.0625 142.438 9.14583 142.438 9.3125C142.479 9.4375 142.458 9.58333 142.375 9.75C141.792 10.2083 141.5 10.6042 141.5 10.9375C141.375 11.0208 141.292 11.125 141.25 11.25C141.25 11.375 141.229 11.5208 141.188 11.6875C141.271 11.8125 141.375 11.9167 141.5 12C141.667 12.0417 141.792 12.125 141.875 12.25C141.917 12.375 141.896 12.4792 141.812 12.5625C141.771 12.6458 141.729 12.7708 141.688 12.9375C141.854 13.2708 141.833 13.6042 141.625 13.9375C141.708 14.2708 141.667 14.5833 141.5 14.875C141.542 15.5833 141.562 16.1042 141.562 16.4375C141.604 16.7292 141.583 17.0417 141.5 17.375C141.417 17.9583 141.396 18.3542 141.438 18.5625C141.521 18.7292 141.562 18.9167 141.562 19.125C141.521 19.7083 141.458 20.0833 141.375 20.25C141.333 20.375 141.333 20.5625 141.375 20.8125C141.458 20.9375 141.521 21.1042 141.562 21.3125C141.604 21.4792 141.604 21.6667 141.562 21.875C141.688 22.4583 141.729 23.0417 141.688 23.625C141.646 24.2083 141.604 24.8125 141.562 25.4375C142.021 25.7708 142.188 26.0417 142.062 26.25C141.938 26.4167 141.833 26.6042 141.75 26.8125C141.792 27.2708 141.771 27.6458 141.688 27.9375C141.604 28.1875 141.583 28.4792 141.625 28.8125C141.625 28.9792 141.646 29.1042 141.688 29.1875C141.771 29.2708 141.833 29.375 141.875 29.5C141.875 29.7083 141.854 29.8958 141.812 30.0625C141.812 30.1875 141.792 30.3542 141.75 30.5625C141.667 30.6875 141.583 30.8125 141.5 30.9375C141.458 31.0208 141.396 31.125 141.312 31.25C141.354 31.625 141.438 32 141.562 32.375C141.688 32.75 141.646 33.125 141.438 33.5C141.438 34.3333 141.375 35.0625 141.25 35.6875C141.333 35.9792 141.333 36.2708 141.25 36.5625C141.208 36.8542 141.104 37.1042 140.938 37.3125C140.896 37.6458 140.854 37.9375 140.812 38.1875C140.812 38.3958 140.792 38.6667 140.75 39C140.583 39.2917 140.417 39.5625 140.25 39.8125C140.125 40.0208 140.042 40.2917 140 40.625C139.542 41 139.292 41.3125 139.25 41.5625C139.25 41.7708 139.167 41.9583 139 42.125C138.583 42.1667 138.354 42.2292 138.312 42.3125C138.271 42.3958 138.188 42.4792 138.062 42.5625C137.979 42.6458 137.875 42.6875 137.75 42.6875C137.625 42.6458 137.5 42.625 137.375 42.625C137.25 42.8333 137.188 43.0417 137.188 43.25C137.188 43.4583 137.146 43.6667 137.062 43.875C136.646 44.0833 136.417 44.2292 136.375 44.3125C136.333 44.3958 136.292 44.4792 136.25 44.5625C136.042 44.6875 135.833 44.8125 135.625 44.9375C135.458 45.0208 135.271 45.1042 135.062 45.1875C134.938 45.2292 134.833 45.3125 134.75 45.4375C134.708 45.5208 134.625 45.6042 134.5 45.6875C134.292 45.6875 134.125 45.7292 134 45.8125C133.875 45.8958 133.75 45.9792 133.625 46.0625C133.292 46.1458 133.021 46.2083 132.812 46.25C132.604 46.25 132.417 46.2292 132.25 46.1875C132.125 46.1458 132.021 46.0417 131.938 45.875C131.729 46.0417 131.479 46.125 131.188 46.125C130.938 46.1667 130.708 46.25 130.5 46.375C129.792 46.3333 129.292 46.3125 129 46.3125C128.75 46.3125 128.458 46.3333 128.125 46.375C128 46.3333 127.896 46.25 127.812 46.125C127.771 46.0417 127.667 45.9792 127.5 45.9375C126.458 46.0208 125.729 45.8125 125.312 45.3125C125.271 45.1875 125.229 45.0833 125.188 45C125.188 44.875 125.167 44.75 125.125 44.625C124.708 44.75 124.417 44.7083 124.25 44.5C124.125 44.2917 123.875 44.2083 123.5 44.25C123.125 43.875 122.854 43.6667 122.688 43.625C122.521 43.5833 122.396 43.5 122.312 43.375C122.146 43.0417 122.021 42.8958 121.938 42.9375C121.854 42.9375 121.792 42.8958 121.75 42.8125C121.583 42.3958 121.458 42.2292 121.375 42.3125C121.292 42.3958 121.208 42.3958 121.125 42.3125C120.958 41.8125 120.854 41.4375 120.812 41.1875C120.771 40.9375 120.75 40.6875 120.75 40.4375C120.833 40.0625 120.833 39.8542 120.75 39.8125C120.708 39.7708 120.667 39.7083 120.625 39.625C120.667 39.4167 120.667 39.2708 120.625 39.1875C120.583 39.0625 120.604 38.8958 120.688 38.6875C120.646 38.4375 120.479 38.25 120.188 38.125C119.896 38.2083 119.667 38.1875 119.5 38.0625C119.25 37.6042 119.104 37.1667 119.062 36.75C119.062 36.2917 119.104 35.8958 119.188 35.5625C119.104 35.3542 119.042 35.1458 119 34.9375C118.958 34.7292 118.938 34.4792 118.938 34.1875C119.021 33.9792 119.083 33.7708 119.125 33.5625C119.208 33.3542 119.208 33.1458 119.125 32.9375C119.208 32.7292 119.229 32.5208 119.188 32.3125C119.188 32.0625 119.229 31.8125 119.312 31.5625C119.271 31.3542 119.229 31.2083 119.188 31.125C119.146 31 119.083 30.875 119 30.75C118.583 30.2917 118.375 29.9375 118.375 29.6875C118.417 29.3958 118.417 29.1458 118.375 28.9375C118.5 28.6875 118.604 28.4375 118.688 28.1875C118.812 27.9375 118.938 27.7083 119.062 27.5C119.062 27.2083 119.042 26.9583 119 26.75C119 26.5417 118.979 26.2708 118.938 25.9375C118.771 25.7292 118.688 25.4583 118.688 25.125C118.688 24.75 118.646 24.3958 118.562 24.0625C118.604 23.8542 118.667 23.7083 118.75 23.625C118.875 23.5 118.917 23.2917 118.875 23C118.833 22.7083 118.729 22.4792 118.562 22.3125C118.438 22.1458 118.333 21.9583 118.25 21.75C118.333 21.5417 118.417 21.3958 118.5 21.3125C118.583 21.1875 118.667 21.0417 118.75 20.875C118.708 20.4583 118.708 20.1042 118.75 19.8125C118.833 19.5208 118.896 19.2083 118.938 18.875C118.938 18.5417 118.917 18.1875 118.875 17.8125C118.875 17.4375 118.917 17.1042 119 16.8125C118.875 16.2708 118.833 15.9792 118.875 15.9375C118.958 15.8542 119.021 15.7708 119.062 15.6875C118.979 15.6042 118.875 15.5417 118.75 15.5C118.625 15.4583 118.542 15.3542 118.5 15.1875C118.5 14.9792 118.521 14.8125 118.562 14.6875C118.646 14.5625 118.708 14.4167 118.75 14.25C118.375 13.75 118.083 13.375 117.875 13.125C117.792 13 117.75 12.8542 117.75 12.6875C117.75 12.5208 117.708 12.3958 117.625 12.3125C117.708 11.8958 117.792 11.6042 117.875 11.4375C117.792 11.2708 117.646 11.2083 117.438 11.25C117.229 11.25 117.021 11.2083 116.812 11.125C116.646 10.7917 116.521 10.6042 116.438 10.5625C116.354 10.5208 116.271 10.4792 116.188 10.4375C116.062 10.2708 115.896 10.1458 115.688 10.0625C115.438 9.9375 115.25 9.77083 115.125 9.5625C115.625 9.3125 115.896 9.27083 115.938 9.4375C115.979 9.5625 116.083 9.625 116.25 9.625C116.75 9.33333 117.062 9.125 117.188 9C117.312 8.83333 117.521 8.77083 117.812 8.8125C118.146 9.10417 118.354 9.22917 118.438 9.1875C118.562 9.14583 118.688 9.16667 118.812 9.25C118.938 9.25 119.042 9.22917 119.125 9.1875C119.25 9.14583 119.396 9.125 119.562 9.125C120.021 9.33333 120.354 9.4375 120.562 9.4375C120.771 9.39583 120.958 9.33333 121.125 9.25C121.375 9.33333 121.667 9.375 122 9.375C122.375 9.33333 122.667 9.39583 122.875 9.5625C123 9.52083 123.125 9.45833 123.25 9.375C123.375 9.25 123.521 9.20833 123.688 9.25C124.104 9.45833 124.375 9.58333 124.5 9.625C124.667 9.66667 124.812 9.70833 124.938 9.75C125.104 9.75 125.229 9.72917 125.312 9.6875C125.396 9.60417 125.521 9.58333 125.688 9.625C125.771 9.75 125.812 9.91667 125.812 10.125C125.812 10.2917 125.833 10.4375 125.875 10.5625C125.75 10.7708 125.688 11.0208 125.688 11.3125C125.688 11.5625 125.729 11.7917 125.812 12C125.729 12.2917 125.688 12.6042 125.688 12.9375C125.688 13.2292 125.646 13.4792 125.562 13.6875C125.688 14.1875 125.646 14.5 125.438 14.625C125.271 14.7083 125.104 14.8333 124.938 15C124.938 15.2083 125 15.3542 125.125 15.4375C125.25 15.5208 125.354 15.6042 125.438 15.6875C125.604 16.2292 125.688 16.5417 125.688 16.625C125.729 16.7083 125.771 16.7917 125.812 16.875C125.812 17.0833 125.792 17.3125 125.75 17.5625C125.75 17.8125 125.75 18.1042 125.75 18.4375C125.75 18.7708 125.771 19.125 125.812 19.5C125.854 19.8333 125.812 20.1667 125.688 20.5C125.562 21 125.521 21.3958 125.562 21.6875C125.604 21.9792 125.667 22.2917 125.75 22.625C125.625 22.8333 125.542 23.125 125.5 23.5C125.5 23.8333 125.562 24.125 125.688 24.375C125.479 24.7083 125.417 25.0625 125.5 25.4375C125.583 25.7708 125.604 26.1667 125.562 26.625C125.354 26.7917 125.167 26.9792 125 27.1875C124.875 27.3542 124.792 27.6042 124.75 27.9375C124.833 28.1458 124.958 28.3333 125.125 28.5C125.292 28.6667 125.417 28.8542 125.5 29.0625C125.458 29.2708 125.458 29.4583 125.5 29.625C125.542 29.75 125.562 29.9167 125.562 30.125C125.854 30.625 125.958 31 125.875 31.25C125.792 31.5 125.708 31.7292 125.625 31.9375C125.167 32.4792 125.021 32.875 125.188 33.125C125.021 33.2917 124.938 33.5208 124.938 33.8125C124.979 34.0625 125 34.2917 125 34.5C125.333 35.4583 125.604 36.2917 125.812 37C125.771 37.3333 125.792 37.5208 125.875 37.5625C125.958 37.5625 126.021 37.6042 126.062 37.6875C126.062 37.8958 126.083 38.0625 126.125 38.1875C126.208 38.3125 126.271 38.4583 126.312 38.625C126.521 38.7917 126.688 38.9792 126.812 39.1875C126.979 39.3542 127.167 39.4792 127.375 39.5625C127.458 39.6875 127.542 39.7917 127.625 39.875C127.708 39.9583 127.792 40.0417 127.875 40.125C128.208 40.375 128.396 40.5208 128.438 40.5625C128.604 40.6042 128.75 40.5833 128.875 40.5C129 40.4167 129.146 40.375 129.312 40.375C129.438 40.375 129.542 40.4167 129.625 40.5C129.75 40.5417 129.875 40.6042 130 40.6875C130.458 40.3958 130.708 40.2083 130.75 40.125C130.792 40 130.875 39.8958 131 39.8125C131.208 39.8125 131.354 39.875 131.438 40C131.521 40.125 131.646 40.1875 131.812 40.1875C132.104 39.8958 132.312 39.6667 132.438 39.5C132.604 39.3333 132.75 39.1875 132.875 39.0625C133.042 38.8958 133.188 38.7292 133.312 38.5625C133.438 38.3958 133.5 38.1667 133.5 37.875C133.625 37.6667 133.771 37.5417 133.938 37.5C134.146 37.4167 134.312 37.2708 134.438 37.0625C134.479 36.7292 134.542 36.4375 134.625 36.1875C134.708 35.9375 134.708 35.6667 134.625 35.375C134.708 35.1667 134.771 34.9792 134.812 34.8125C134.896 34.6042 134.896 34.3958 134.812 34.1875C134.854 33.9792 134.917 33.8125 135 33.6875C135.083 33.5625 135.167 33.4375 135.25 33.3125C135.292 33.1042 135.292 32.9583 135.25 32.875C135.208 32.75 135.167 32.6458 135.125 32.5625C135.208 32.2292 135.25 31.875 135.25 31.5C135.292 31.125 135.354 30.7708 135.438 30.4375C135.438 30.0625 135.396 29.7292 135.312 29.4375C135.229 29.1042 135.167 28.7292 135.125 28.3125C135.167 27.8542 135.188 27.4792 135.188 27.1875C135.312 26.6042 135.312 26 135.188 25.375C135.146 25.25 135.083 25.1458 135 25.0625C134.958 24.9375 134.896 24.8333 134.812 24.75C134.896 24.5417 134.958 24.3542 135 24.1875C135.083 23.9792 135.146 23.7292 135.188 23.4375C135.229 23.2292 135.25 23.0625 135.25 22.9375C135.25 22.8125 135.25 22.625 135.25 22.375C135.167 22.1667 135.104 21.9583 135.062 21.75C135.021 21.5 135 21.25 135 21C135.042 20.75 135.083 20.5208 135.125 20.3125C135.208 20.0625 135.208 19.8333 135.125 19.625C135.208 19.4583 135.271 19.2917 135.312 19.125C135.354 18.9167 135.417 18.7708 135.5 18.6875C135.458 18.2292 135.396 17.9583 135.312 17.875C135.229 17.7917 135.146 17.7083 135.062 17.625C134.979 17.4583 134.938 17.2708 134.938 17.0625C134.979 16.8542 134.979 16.6458 134.938 16.4375C135.021 16.1042 135.083 15.8333 135.125 15.625C135 15.0417 134.938 14.6875 134.938 14.5625C134.979 14.3958 135 14.2292 135 14.0625C134.792 13.3542 134.792 12.875 135 12.625C135.208 12.375 135.25 12.0833 135.125 11.75C135.167 11.25 135.125 10.9583 135 10.875C134.917 10.75 134.854 10.5833 134.812 10.375C134.854 10 134.833 9.79167 134.75 9.75C134.708 9.66667 134.729 9.58333 134.812 9.5C134.938 9.25 135.167 9.14583 135.5 9.1875C135.875 9.1875 136.167 9.27083 136.375 9.4375C136.667 9.4375 136.896 9.41667 137.062 9.375C137.271 9.29167 137.542 9.29167 137.875 9.375C138.292 9.5 138.583 9.54167 138.75 9.5C138.958 9.41667 139.167 9.33333 139.375 9.25C139.75 9.25 140.021 9.1875 140.188 9.0625C140.354 8.9375 140.542 8.875 140.75 8.875C141.25 9.16667 141.521 9.39583 141.562 9.5625C141.896 9.39583 142.062 9.27083 142.062 9.1875C142.062 9.10417 142.104 9.0625 142.188 9.0625ZM173.875 58.25C173.833 58.4583 173.875 58.625 174 58.75C174.167 58.875 174.188 59.0208 174.062 59.1875C173.771 59.1458 173.583 59.0625 173.5 58.9375C173.417 58.8125 173.312 58.7083 173.188 58.625C173.021 58.5833 172.896 58.5208 172.812 58.4375C172.729 58.3542 172.604 58.2917 172.438 58.25C171.896 57.9583 171.542 57.75 171.375 57.625C171.25 57.5 171.104 57.3542 170.938 57.1875C170.646 57.1042 170.458 57 170.375 56.875C170.292 56.7917 170.208 56.7083 170.125 56.625C169.625 56.2917 169.312 56 169.188 55.75C169.104 55.5417 169.021 55.2708 168.938 54.9375C168.479 54.7708 168.167 54.5833 168 54.375C167.875 54.1667 167.604 54.0833 167.188 54.125C167.021 53.9583 166.896 53.75 166.812 53.5C166.771 53.2917 166.708 53.0625 166.625 52.8125C166.417 52.8125 166.25 52.75 166.125 52.625C166.042 52.5417 165.896 52.5208 165.688 52.5625C165.438 52.2708 165.271 52.1458 165.188 52.1875C165.104 52.2292 165.021 52.25 164.938 52.25C164.646 52.2083 164.417 52.125 164.25 52C164.125 51.875 163.958 51.7292 163.75 51.5625C163.5 51.3958 163.354 51.2708 163.312 51.1875C163.271 51.1458 163.208 51.0833 163.125 51C162.958 51 162.833 51.0417 162.75 51.125C162.667 51.2083 162.542 51.25 162.375 51.25C162.25 51.0417 162.229 50.8125 162.312 50.5625C162.438 50.3542 162.479 50.1458 162.438 49.9375C162.021 49.5208 161.833 49.2083 161.875 49C161.958 48.7917 161.958 48.5833 161.875 48.375C161.542 48.125 161.396 47.9583 161.438 47.875C161.479 47.8333 161.479 47.7708 161.438 47.6875C160.938 47.6042 160.708 47.5208 160.75 47.4375C160.833 47.3542 160.896 47.25 160.938 47.125C160.479 46.9583 160.208 46.8958 160.125 46.9375C160.083 47.0208 160.021 47.1042 159.938 47.1875C159.562 47.2292 159.271 47.1667 159.062 47C158.854 46.8333 158.646 46.6667 158.438 46.5C158.229 46.5833 158.062 46.7083 157.938 46.875C157.812 47.0417 157.604 47.125 157.312 47.125C157.104 47.0417 156.958 46.9375 156.875 46.8125C156.792 46.6875 156.708 46.5833 156.625 46.5C155.958 46.5417 155.562 46.4167 155.438 46.125C155.188 46.1667 155 46.1667 154.875 46.125C154.75 46.0833 154.646 46.0417 154.562 46C153.979 45.875 153.625 45.7708 153.5 45.6875C153.375 45.6042 153.229 45.5417 153.062 45.5C152.854 45.4583 152.708 45.5 152.625 45.625C152.542 45.7083 152.396 45.7292 152.188 45.6875C152.062 45.6042 151.958 45.3542 151.875 44.9375C151.792 44.7708 151.688 44.6458 151.562 44.5625C151.438 44.4375 151.312 44.3333 151.188 44.25C151.104 43.9167 150.958 43.6458 150.75 43.4375C150.542 43.2292 150.375 42.9583 150.25 42.625C150.167 42.5417 150.062 42.5 149.938 42.5C149.854 42.4583 149.75 42.3958 149.625 42.3125C149.542 42.1875 149.438 42.0833 149.312 42C149.229 41.875 149.167 41.7292 149.125 41.5625C148.833 41.2708 148.479 41.0208 148.062 40.8125C147.688 40.6042 147.396 40.3333 147.188 40C147.312 39.5833 147.417 39.2292 147.5 38.9375C147.125 38.1042 146.854 37.4792 146.688 37.0625C146.771 36.6875 146.75 36.375 146.625 36.125C146.5 35.875 146.333 35.6458 146.125 35.4375C146.125 35.2292 146.125 35.0417 146.125 34.875C146.125 34.6667 146.146 34.4375 146.188 34.1875C146.188 34.0208 146.146 33.8958 146.062 33.8125C146.021 33.7292 145.958 33.625 145.875 33.5C145.833 33.0833 145.75 32.8125 145.625 32.6875C145.542 32.5625 145.458 32.3958 145.375 32.1875C145.375 31.9792 145.354 31.8125 145.312 31.6875C145.312 31.5208 145.354 31.3333 145.438 31.125C145.354 30.9167 145.292 30.7292 145.25 30.5625C145.25 30.3542 145.208 30.1458 145.125 29.9375C145.208 29.3542 145.167 28.8125 145 28.3125C144.875 27.8125 144.917 27.2917 145.125 26.75C145.417 26.1667 145.521 25.625 145.438 25.125C145.396 24.5833 145.354 24.0833 145.312 23.625C145.562 23 145.667 22.5 145.625 22.125C145.583 21.75 145.604 21.375 145.688 21C145.771 20.75 145.854 20.5208 145.938 20.3125C146.021 20.0625 146.146 19.8333 146.312 19.625C146.271 19.4167 146.25 19.125 146.25 18.75C146.625 18.2083 146.875 17.6042 147 16.9375C147.167 16.2292 147.438 15.625 147.812 15.125C148.271 14.5417 148.625 14.1042 148.875 13.8125C149.125 13.4792 149.375 13.1458 149.625 12.8125C149.958 12.6042 150.146 12.4167 150.188 12.25C150.229 12.0417 150.312 11.8542 150.438 11.6875C150.646 11.6042 150.771 11.4792 150.812 11.3125C150.896 11.1458 151.021 11.0208 151.188 10.9375C151.271 10.7708 151.396 10.5625 151.562 10.3125C151.729 10.2708 151.854 10.25 151.938 10.25C152.062 10.2083 152.188 10.1667 152.312 10.125C152.438 9.875 152.562 9.64583 152.688 9.4375C152.812 9.22917 153 9.08333 153.25 9C153.833 9.04167 154.188 8.95833 154.312 8.75C154.479 8.5 154.771 8.41667 155.188 8.5C155.396 8.41667 155.562 8.25 155.688 8C155.812 7.70833 156.021 7.60417 156.312 7.6875C156.604 8.14583 156.833 8.35417 157 8.3125C157.167 8.22917 157.292 8.14583 157.375 8.0625C157.458 8.0625 157.562 8.0625 157.688 8.0625C157.854 8.02083 158.021 8 158.188 8C158.354 7.95833 158.458 7.91667 158.5 7.875C158.583 7.83333 158.708 7.83333 158.875 7.875C159.042 7.95833 159.146 8.0625 159.188 8.1875C159.229 8.3125 159.312 8.41667 159.438 8.5C159.688 8.54167 159.875 8.41667 160 8.125C160.125 7.83333 160.292 7.70833 160.5 7.75C161.042 8.04167 161.458 8.22917 161.75 8.3125C162.042 8.35417 162.25 8.47917 162.375 8.6875C162.75 8.60417 162.938 8.58333 162.938 8.625C162.979 8.66667 163.021 8.70833 163.062 8.75C163.646 9.16667 164.125 9.4375 164.5 9.5625C164.875 9.64583 165.146 9.875 165.312 10.25C165.521 10.3333 165.729 10.4167 165.938 10.5C166.146 10.5417 166.333 10.625 166.5 10.75C166.667 11.25 166.812 11.5 166.938 11.5C167.104 11.5 167.25 11.5417 167.375 11.625C167.458 11.875 167.583 12.0833 167.75 12.25C167.917 12.4167 168.042 12.6458 168.125 12.9375C168.458 13.4792 168.771 13.8333 169.062 14C169.062 14.2917 169.125 14.5208 169.25 14.6875C169.417 14.8125 169.479 15.0417 169.438 15.375C169.521 15.6667 169.667 15.8958 169.875 16.0625C170.083 16.1875 170.292 16.3542 170.5 16.5625C170.833 16.5625 171.021 16.5833 171.062 16.625C171.104 16.625 171.146 16.6667 171.188 16.75C170.979 17.5 170.979 18.2292 171.188 18.9375C171.396 19.6042 171.479 20.3333 171.438 21.125C171.729 21.9167 171.958 22.4583 172.125 22.75C172.125 23 172.125 23.2708 172.125 23.5625C172.125 23.8125 172.146 24.0417 172.188 24.25C172.521 24.75 172.646 25.1042 172.562 25.3125C172.479 25.4792 172.417 25.6667 172.375 25.875C172.458 26.3333 172.521 26.6042 172.562 26.6875C172.604 26.7292 172.667 26.7917 172.75 26.875C172.708 27.2083 172.625 27.4583 172.5 27.625C172.417 27.7917 172.354 28.0417 172.312 28.375C172.229 28.875 172.167 29.1875 172.125 29.3125C172.083 29.3958 172.062 29.5208 172.062 29.6875C172.146 29.8125 172.229 29.9583 172.312 30.125C172.396 30.2917 172.396 30.4792 172.312 30.6875C171.896 31.2292 171.688 31.7083 171.688 32.125C171.729 32.5417 171.667 32.9375 171.5 33.3125C171.542 33.4375 171.604 33.5417 171.688 33.625C171.812 33.6667 171.875 33.7708 171.875 33.9375C171.833 34.3542 171.688 34.6458 171.438 34.8125C171.188 34.9792 170.958 35.1667 170.75 35.375C170.958 35.8333 170.938 36.2292 170.688 36.5625C170.771 37.0208 170.792 37.4583 170.75 37.875C170.708 38.25 170.5 38.5 170.125 38.625C170.042 38.7917 169.979 38.9792 169.938 39.1875C169.938 39.3958 169.896 39.5833 169.812 39.75C169.354 40.25 168.938 40.5833 168.562 40.75C168.604 41.0833 168.542 41.3333 168.375 41.5C168.208 41.625 168.021 41.75 167.812 41.875C167.771 42.0833 167.708 42.25 167.625 42.375C167.583 42.5 167.521 42.625 167.438 42.75C167.312 43.5417 167.167 44.0625 167 44.3125C167.042 44.5208 167.125 44.6875 167.25 44.8125C167.375 44.8958 167.479 45 167.562 45.125C167.604 45.2083 167.625 45.3333 167.625 45.5C167.625 45.625 167.625 45.7292 167.625 45.8125C167.833 46.0208 167.979 46.3333 168.062 46.75C168.271 47.5833 168.458 48.0833 168.625 48.25C169.125 48.25 169.375 48.4583 169.375 48.875C169.417 49.2917 169.458 49.7292 169.5 50.1875C169.75 50.5625 169.917 50.9375 170 51.3125C170.042 51.4792 170.104 51.6042 170.188 51.6875C170.312 51.7708 170.396 51.8958 170.438 52.0625C170.729 52.4792 170.896 52.7917 170.938 53C171.021 53.25 171.083 53.4792 171.125 53.6875C171.208 53.8958 171.312 54.0625 171.438 54.1875C171.562 54.3542 171.708 54.5 171.875 54.625C171.875 55.0833 171.938 55.3542 172.062 55.4375C172.188 55.5208 172.312 55.5833 172.438 55.625C172.562 55.7083 172.646 55.8125 172.688 55.9375C172.771 56.0625 172.792 56.2292 172.75 56.4375C172.958 56.8542 173.104 57.1042 173.188 57.1875C173.271 57.3125 173.354 57.4792 173.438 57.6875C173.521 57.7708 173.583 57.8542 173.625 57.9375C173.708 58.0625 173.792 58.1667 173.875 58.25ZM165.25 29.5C165.333 28.875 165.375 28.4792 165.375 28.3125C165.458 28.0625 165.521 27.8333 165.562 27.625C165.646 27.375 165.625 27.125 165.5 26.875C165.5 26.4583 165.479 26.1667 165.438 26C165.438 25.8333 165.417 25.7083 165.375 25.625C165.208 25.375 165.062 25.0833 164.938 24.75C164.854 24.4167 164.833 24.0208 164.875 23.5625C164.958 23.3125 165 23.0625 165 22.8125C165 22.5625 165.042 22.3333 165.125 22.125C164.542 21.6667 164.208 21.2708 164.125 20.9375C164.083 20.6042 164.021 20.2708 163.938 19.9375C163.854 19.3958 163.75 19.0208 163.625 18.8125C163.542 18.5625 163.5 18.2708 163.5 17.9375C163.292 17.4792 163.167 17.2292 163.125 17.1875C163.083 17.1042 163.062 17.0208 163.062 16.9375C162.771 16.8542 162.562 16.7292 162.438 16.5625C162.396 16.3958 162.354 16.25 162.312 16.125C162.271 16 162.229 15.8542 162.188 15.6875C162.104 15.5625 162 15.4583 161.875 15.375C161.792 15.25 161.729 15.125 161.688 15C161.229 14.6667 160.938 14.4167 160.812 14.25C160.729 14.0417 160.583 13.8958 160.375 13.8125C159.708 13.7292 159.292 13.6458 159.125 13.5625C158.667 13.7292 158.333 13.8125 158.125 13.8125C157.625 13.7708 157.312 13.7708 157.188 13.8125C156.896 14.1458 156.708 14.2917 156.625 14.25C156.542 14.2083 156.458 14.1667 156.375 14.125C156.25 14.25 156.208 14.3958 156.25 14.5625C156.292 14.6875 156.312 14.8125 156.312 14.9375C156.104 15.0625 155.958 15.1042 155.875 15.0625C155.833 15.0208 155.75 15 155.625 15C155.333 15.4167 155.125 15.75 155 16C154.833 16.625 154.625 17.0417 154.375 17.25C154.125 17.4167 153.958 17.6875 153.875 18.0625C153.958 18.3958 153.896 18.6875 153.688 18.9375C153.521 19.1458 153.354 19.3542 153.188 19.5625C153.312 20.1458 153.25 20.6458 153 21.0625C152.792 21.4792 152.583 21.8125 152.375 22.0625C152.458 22.5625 152.438 22.8958 152.312 23.0625C152.229 23.1875 152.125 23.3542 152 23.5625C151.917 23.7708 151.917 23.9375 152 24.0625C152.125 24.1875 152.208 24.3333 152.25 24.5C152.208 24.7083 152.125 24.875 152 25C151.917 25.0833 151.875 25.2292 151.875 25.4375C151.875 25.5625 151.896 25.6875 151.938 25.8125C152.021 25.9375 152.062 26.0833 152.062 26.25C152.104 26.4583 152.083 26.625 152 26.75C151.917 26.8333 151.833 26.9583 151.75 27.125C151.833 27.2917 151.958 27.4375 152.125 27.5625C152.292 27.6458 152.354 27.7917 152.312 28C152.271 28.75 152.208 29.4792 152.125 30.1875C152.25 31.1042 152.25 31.7708 152.125 32.1875C152.167 32.3958 152.229 32.5625 152.312 32.6875C152.396 32.8125 152.479 32.9792 152.562 33.1875C152.562 33.3958 152.562 33.5833 152.562 33.75C152.604 33.875 152.625 34.0625 152.625 34.3125C152.792 34.6042 152.938 34.7917 153.062 34.875C153.188 34.9167 153.25 35.0208 153.25 35.1875C153.292 35.3542 153.312 35.5208 153.312 35.6875C153.312 35.8542 153.333 35.9792 153.375 36.0625C153.917 36.1458 154.146 36.5 154.062 37.125C154.146 37.2917 154.25 37.4583 154.375 37.625C154.5 37.75 154.562 37.9375 154.562 38.1875C154.896 38.2292 155.083 38.3958 155.125 38.6875C155.167 38.9792 155.188 39.2708 155.188 39.5625C155.312 39.6458 155.438 39.75 155.562 39.875C155.688 39.9583 155.875 39.9583 156.125 39.875C156.333 39.9583 156.458 40.1042 156.5 40.3125C156.583 40.5208 156.708 40.7083 156.875 40.875C157.083 40.8333 157.312 40.7708 157.562 40.6875C157.812 40.6042 158.042 40.625 158.25 40.75C158.792 40.625 159.083 40.625 159.125 40.75C159.208 40.8333 159.333 40.8958 159.5 40.9375C159.708 40.8958 159.833 40.8333 159.875 40.75C159.958 40.625 160.062 40.5208 160.188 40.4375C160.604 40.4375 160.896 40.375 161.062 40.25C161.438 40.125 161.667 39.9375 161.75 39.6875C162 39.3542 162.146 39.1458 162.188 39.0625C162.271 38.9792 162.354 38.8958 162.438 38.8125C162.479 38.6042 162.562 38.4375 162.688 38.3125C162.812 38.1875 162.917 38.0625 163 37.9375C163.375 37.5625 163.542 37.2292 163.5 36.9375C163.5 36.6042 163.604 36.3333 163.812 36.125C164.146 35.4167 164.375 34.9583 164.5 34.75C164.417 34.5833 164.396 34.4167 164.438 34.25C164.479 34.0833 164.5 33.8958 164.5 33.6875C164.792 33.1458 164.979 32.75 165.062 32.5C165.146 32.2083 165.229 31.8958 165.312 31.5625C165.229 31.3125 165.146 31.0417 165.062 30.75C165.021 30.4583 165.083 30.1875 165.25 29.9375V29.5Z" fill="#4255FF"/>
</svg>
